<svg width="32" height="45" viewBox="0 0 32 45" fill="none" xmlns="http://www.w3.org/2000/svg">
  <!-- Main Pin Shape -->
  <path d="M16 0C7.163 0 0 7.163 0 16C0 16.9 0.1 17.7 0.3 18.5C0.4 19 0.6 19.4 0.8 19.8C3.1 23.7 16 45 16 45C16 45 28.9 23.7 31.2 19.8C31.4 19.4 31.6 19 31.7 18.5C31.9 17.7 32 16.9 32 16C32 7.163 24.837 0 16 0Z" fill="#003D7A"/>
  
  <!-- White Concentric Circles -->
  <circle cx="16" cy="16" r="13" fill="none" stroke="white" stroke-width="1.5"/>
  <circle cx="16" cy="16" r="10.5" fill="none" stroke="white" stroke-width="1.5"/>
  <circle cx="16" cy="16" r="8" fill="none" stroke="white" stroke-width="1.5"/>
  <circle cx="16" cy="16" r="5.5" fill="none" stroke="white" stroke-width="1.5"/>
  <circle cx="16" cy="16" r="3" fill="none" stroke="white" stroke-width="1.5"/>
  
  <!-- Center Circle -->
  <circle cx="16" cy="16" r="6" fill="#003D7A"/>
  
  <!-- Yellow Quarter Circle -->
  <path d="M16 3C16 3 16 10 16 16L28.5 16C28.5 8.6 23.4 3 16 3Z" fill="#FFDE00"/>
  
  <!-- Yellow Dot -->
  <circle cx="18.5" cy="13.5" r="2" fill="#FFDE00"/>
</svg>
