<svg width="18" height="26" viewBox="0 0 18 26" fill="none" xmlns="http://www.w3.org/2000/svg">
<style type="text/css">
	.st0{fill:#FFDE00;}
	.st1{fill:#30394F;}
</style>
<path id="Vector" class="st0" d="M9,0C4,0,0,4,0,9c0,0.9,0.1,1.7,0.3,2.5c0.1,0.5,0.3,1,0.5,1.4C2.7,16.3,9,26,9,26
	s6.3-9.7,8.1-13.1c0.2-0.4,0.4-0.9,0.5-1.4C17.9,10.7,18,9.9,18,9C18,4,14,0,9,0z"/>
<g>
	<path class="st1" d="M3.8,9.1c0,2.8,2.3,5.2,5.2,5.2c2.7,0,4.9-2.1,5.2-4.7h-0.6c-0.2,2.3-2.2,4.2-4.6,4.2c-2.5,0-4.6-2.1-4.6-4.6
		c0-2.4,1.8-4.3,4.1-4.6V4C5.9,4.2,3.8,6.4,3.8,9.1z"/>
	<path class="st1" d="M8.5,5.6V5.1C6.5,5.3,5,7.1,5,9.1c0,2.2,1.8,4,4,4c2.1,0,3.8-1.6,4-3.6h-0.6c-0.2,1.7-1.7,3-3.5,3
		c-1.9,0-3.5-1.6-3.5-3.5C5.5,7.3,6.8,5.9,8.5,5.6z"/>
	<path class="st1" d="M15.9,9.6C15.6,13.1,12.7,16,9,16c-3.8,0-6.9-3.1-6.9-6.9c0-3.6,2.8-6.6,6.4-6.9V1.7C4.7,1.9,1.6,5.2,1.6,9.1
		c0,4.1,3.3,7.4,7.4,7.4c3.9,0,7.1-3.1,7.4-6.9H15.9z"/>
	<path class="st1" d="M2.7,9.1c0,3.5,2.8,6.3,6.3,6.3c3.3,0,6.1-2.6,6.3-5.9h-0.6c-0.2,3-2.7,5.3-5.7,5.3c-3.2,0-5.7-2.6-5.7-5.7
		c0-3,2.3-5.5,5.3-5.7V2.8C5.3,3.1,2.7,5.8,2.7,9.1z"/>
	<path class="st1" d="M9.5,5.6c1.6,0.2,2.8,1.4,3,3h3.9c-0.2-3.7-3.2-6.7-6.9-6.9V5.6z"/>
	<path class="st1" d="M10.3,7.1c0.4,0,0.8,0.4,0.8,0.8c0,0.4-0.4,0.8-0.8,0.8c-0.4,0-0.8-0.4-0.8-0.8C9.5,7.4,9.8,7.1,10.3,7.1z"/>
</g>

</svg>
