<svg width="80" height="80" viewBox="0 0 80 80" fill="none" xmlns="http://www.w3.org/2000/svg">
<path d="M35.4273 34.4358C32.4946 34.4358 30.1087 36.8217 30.1087 39.7544C30.1087 41.4712 30.9271 43.055 32.2873 44.048V46.4598C32.2873 48.1911 33.6959 49.5997 35.4271 49.5997C37.1585 49.5997 38.567 48.1911 38.567 46.4598V44.0481C39.9273 43.0553 40.7455 41.4714 40.7455 39.7545C40.7457 36.8217 38.3598 34.4358 35.4273 34.4358ZM36.7355 42.2514C36.3245 42.4673 36.0671 42.8934 36.0671 43.358V46.4598C36.0671 46.8067 35.7741 47.0997 35.4273 47.0997C35.0804 47.0997 34.7874 46.8067 34.7874 46.4598V43.3578C34.7874 42.8934 34.5301 42.4673 34.119 42.2512C33.1876 41.7617 32.6088 40.8048 32.6088 39.7542C32.6088 38.2 33.8732 36.9356 35.4274 36.9356C36.9815 36.9356 38.2459 38.2 38.2459 39.7542C38.2457 40.8052 37.6671 41.7619 36.7355 42.2514ZM69.7074 40.0083C69.7082 39.9116 69.7118 39.815 69.7118 39.7188V13.2361C69.7118 12.8066 69.4913 12.4073 69.128 12.1784C55.9282 3.86406 45.5345 0.15625 35.427 0.15625C25.3195 0.15625 14.9259 3.86406 1.72633 12.1784C1.36289 12.4073 1.14258 12.8067 1.14258 13.2361V39.7188C1.14258 49.89 5.69102 58.7608 13.9501 64.697L34.6977 79.6087C34.9157 79.7653 35.1715 79.8438 35.4273 79.8438C35.683 79.8438 35.9388 79.7655 36.1568 79.6087L48.5888 70.6734C51.777 73.2103 55.8101 74.7284 60.1916 74.7284C70.4846 74.7284 78.8587 66.3545 78.8587 56.0616C78.8585 49.2419 75.182 43.2658 69.7074 40.0083ZM35.4271 77.0544L15.4091 62.667C7.82133 57.2133 3.64258 49.0634 3.64258 39.7188V13.9278C27.6205 -1.02047 43.233 -1.02062 67.2118 13.9278V38.7659C66.3104 38.3988 65.3748 38.0989 64.4101 37.8752V16.1967C64.4101 15.7581 64.1802 15.3517 63.8045 15.1256C52.7016 8.44688 43.9499 5.46859 35.4271 5.46859C35.4266 5.46859 35.4276 5.46859 35.4271 5.46859C26.9048 5.46859 18.1518 8.44719 7.04992 15.1255C6.67414 15.3516 6.4443 15.758 6.4443 16.1966V39.7188C6.4443 48.2594 10.1096 55.408 17.0441 60.3919L34.6976 73.0798C34.9155 73.2364 35.1713 73.3148 35.4271 73.3148C35.6829 73.3148 35.9387 73.2366 36.1566 73.0798L44.9188 66.7822C45.459 67.5494 46.0549 68.2747 46.7015 68.9511L35.4271 77.0544ZM41.6124 54.2536H22.9721C21.8137 54.2536 20.8712 53.3111 20.8712 52.1527V31.8828C20.8712 30.7244 21.8137 29.7819 22.9721 29.7819H47.8821C49.0405 29.7819 49.983 30.7244 49.983 31.8828V40.4411C45.369 43.4669 42.1701 48.4794 41.6124 54.2536ZM44.9688 27.2819H42.3396V22.853C42.3396 19.0416 39.2387 15.9408 35.4273 15.9408C31.6157 15.9408 28.5149 19.0416 28.5149 22.853V27.2819H25.8857V22.853C25.8857 17.5919 30.166 13.3116 35.4273 13.3116C40.6885 13.3116 44.9688 17.5919 44.9688 22.853V27.2819ZM39.8395 27.2819H31.0148V22.853C31.0148 20.42 32.9941 18.4408 35.4271 18.4408C37.8601 18.4408 39.8395 20.42 39.8395 22.853V27.2819ZM47.8823 27.2819H47.4688V22.853C47.4688 16.2133 42.067 10.8116 35.4273 10.8116C28.7874 10.8116 23.3857 16.2133 23.3857 22.853V27.2819H22.9723C20.4354 27.2819 18.3713 29.3458 18.3713 31.8828V52.1527C18.3713 54.6895 20.4352 56.7536 22.9723 56.7536H41.5388C41.6427 59.5878 42.3807 62.2625 43.616 64.6398L35.4271 70.5255L18.5032 58.3619C12.2496 53.8673 8.9443 47.4206 8.9443 39.7188V16.9058C28.9038 5.05359 41.9499 5.05359 61.9101 16.9058V37.4744C61.344 37.4225 60.771 37.3945 60.1915 37.3945C57.4443 37.3945 54.8341 37.9914 52.483 39.0617V31.8828C52.483 29.3459 50.4191 27.2819 47.8823 27.2819ZM60.1915 72.2284C51.277 72.2284 44.0246 64.9759 44.0246 56.0616C44.0246 47.1472 51.2771 39.8945 60.1915 39.8945C69.1059 39.8945 76.3585 47.147 76.3585 56.0616C76.3585 64.9761 69.106 72.2284 60.1915 72.2284ZM70.8513 47.8258C69.5307 46.5048 67.3813 46.5048 66.0602 47.8258L57.0624 56.8236L54.5724 53.6902C53.4112 52.2295 51.2782 51.9861 49.8177 53.1472C49.1102 53.7097 48.664 54.5141 48.5613 55.412C48.4588 56.3102 48.7121 57.1944 49.2745 57.9017L54.0209 63.8747C54.1284 64.0245 54.249 64.1667 54.3799 64.2975C55.0198 64.9373 55.8705 65.2898 56.7755 65.2898C57.6805 65.2898 58.5313 64.9375 59.1712 64.2975L70.8515 52.6172C72.1723 51.2959 72.1723 49.1467 70.8513 47.8258ZM69.0835 50.8492L57.4032 62.5295C57.2355 62.6972 57.0126 62.7895 56.7754 62.7895C56.5382 62.7895 56.3152 62.6972 56.1476 62.5295C56.1099 62.4919 56.0755 62.4509 56.0455 62.408C56.0307 62.3869 56.0154 62.3661 55.9993 62.3459L51.2315 56.3461C51.0846 56.1612 51.0184 55.9303 51.0452 55.6956C51.0721 55.4609 51.1885 55.2509 51.3734 55.1041C51.5357 54.975 51.7298 54.9123 51.9227 54.9123C52.1832 54.9123 52.4412 55.0266 52.6154 55.2456L55.977 59.4759C56.1985 59.7548 56.5287 59.9259 56.8845 59.9463C57.2391 59.9669 57.5876 59.8341 57.8395 59.5822L67.828 49.5936C68.1743 49.2473 68.7376 49.2475 69.0837 49.5936C69.4296 49.9397 69.4296 50.503 69.0835 50.8492Z" fill="#807166"/>
</svg>
