<svg width="80" height="80" viewBox="0 0 80 80" fill="none" xmlns="http://www.w3.org/2000/svg">
<path d="M8.15961 74.7125H4.43086C3.76461 74.7125 3.22461 75.2525 3.22461 75.9188C3.22461 76.585 3.76461 77.125 4.43086 77.125H75.5684C76.2346 77.125 76.7746 76.585 76.7746 75.9188C76.7746 75.2525 76.2346 74.7125 75.5684 74.7125H71.8396V37.9688C74.7296 37.4125 76.6009 35.1012 76.7009 31.8587C76.7009 31.2925 76.5246 30.7663 76.1771 30.555L68.1571 23.675C67.9384 23.4875 67.6596 23.3838 67.3709 23.3838H54.8871V6.28C54.8871 4.4025 53.3596 2.875 51.4821 2.875H28.5171C26.6396 2.875 25.1121 4.4025 25.1121 6.28V23.3838H12.6234C12.3359 23.3838 12.0559 23.4863 11.8371 23.675L3.68836 30.67C3.36711 30.9463 3.29461 31.2138 3.29461 31.77C3.36086 35.06 5.24461 37.405 8.15961 37.9675V74.7125ZM14.6346 35.6787C15.7296 37.205 17.5071 38.1025 19.7084 38.1025C21.9096 38.1025 23.6871 37.205 24.7821 35.6787C25.8771 37.205 27.6546 38.1025 29.8559 38.1025C32.0084 38.1025 33.7509 37.2113 34.8521 35.6688C34.9959 35.865 35.1521 36.0538 35.3221 36.2313C36.4734 37.4375 38.1359 38.1025 40.0034 38.1025C42.2046 38.1025 43.9821 37.205 45.0771 35.6787C46.1721 37.205 47.9496 38.1025 50.1509 38.1025C52.3521 38.1025 54.1296 37.205 55.2246 35.6787C56.3196 37.205 58.0971 38.1025 60.2984 38.1025C62.4996 38.1025 64.2771 37.205 65.3721 35.6787C66.2921 36.9625 67.6996 37.7925 69.4309 38.0275V55.8575H10.5721V38.0288C12.3046 37.7938 13.7134 36.9625 14.6346 35.6787ZM26.4771 25.7962L24.0346 30.38H17.2071L20.9971 25.7962H26.4771ZM59.9346 25.7962L63.0721 30.38H56.0534L54.3384 25.7962H59.9346ZM64.0271 32.7913C63.6334 34.6213 62.3084 35.69 60.2946 35.69C58.2821 35.69 56.9571 34.62 56.5634 32.7913H64.0271ZM51.7634 25.7962L53.4784 30.38H46.1109L45.4209 25.7962H51.7634ZM53.8796 32.7913C53.4859 34.6213 52.1609 35.69 50.1484 35.69C48.1346 35.69 46.8109 34.62 46.4159 32.7913H53.8796ZM42.9821 25.7962L43.6721 30.38H36.4159L37.3734 25.7962H42.9821ZM43.7334 32.7913C43.3396 34.6213 42.0146 35.69 40.0021 35.69C38.7996 35.69 37.7571 35.2913 37.0671 34.5662C36.6171 34.095 36.3434 33.4925 36.2159 32.79L43.7334 32.7913ZM33.9509 30.3787H26.7671L29.2096 25.795H34.9071L33.9509 30.3787ZM33.5321 32.7913C33.0709 34.6425 31.7846 35.69 29.8546 35.69C27.8421 35.69 26.5171 34.62 26.1234 32.7913H33.5321ZM23.4396 32.7913C23.0459 34.6213 21.7209 35.69 19.7071 35.69C17.6946 35.69 16.3696 34.62 15.9759 32.7913H23.4396ZM62.5846 70.665C63.4846 70.665 64.2184 69.9325 64.2184 69.0312V63.8338C64.2184 63.1675 63.6784 62.6275 63.0121 62.6275C62.3459 62.6275 61.8059 63.1675 61.8059 63.8338V68.2525H58.0384C57.3721 68.2525 56.8321 68.7925 56.8321 69.4588C56.8321 70.125 57.3721 70.665 58.0384 70.665H59.3196V74.5863H55.6784V66.3575H58.2084C58.8746 66.3575 59.4146 65.8175 59.4146 65.1512C59.4146 64.485 58.8746 63.945 58.2084 63.945H50.7359C50.0696 63.945 49.5296 64.485 49.5296 65.1512C49.5296 65.8175 50.0696 66.3575 50.7359 66.3575H53.2659V74.5863H49.6246V70.665H50.9046C51.5709 70.665 52.1109 70.125 52.1109 69.4588C52.1109 68.7925 51.5709 68.2525 50.9046 68.2525H47.1371V63.8338C47.1371 63.1675 46.5971 62.6275 45.9309 62.6275C45.2646 62.6275 44.7246 63.1675 44.7246 63.8338V69.0312C44.7246 69.9313 45.4571 70.665 46.3584 70.665H47.2121V74.5863H32.7871V70.665H33.6409C34.5409 70.665 35.2746 69.9325 35.2746 69.0312V63.8338C35.2746 63.1675 34.7346 62.6275 34.0684 62.6275C33.4021 62.6275 32.8621 63.1675 32.8621 63.8338V68.2525H29.0946C28.4284 68.2525 27.8884 68.7925 27.8884 69.4588C27.8884 70.125 28.4284 70.665 29.0946 70.665H30.3746V74.5863H26.7334V66.3575H29.2634C29.9296 66.3575 30.4696 65.8175 30.4696 65.1512C30.4696 64.485 29.9296 63.945 29.2634 63.945H21.7909C21.1246 63.945 20.5846 64.485 20.5846 65.1512C20.5846 65.8175 21.1246 66.3575 21.7909 66.3575H24.3209V74.5863H20.6796V70.665H21.9609C22.6271 70.665 23.1671 70.125 23.1671 69.4588C23.1671 68.7925 22.6271 68.2525 21.9609 68.2525H18.1934V63.8338C18.1934 63.1675 17.6534 62.6275 16.9871 62.6275C16.3209 62.6275 15.7809 63.1675 15.7809 63.8338V69.0312C15.7809 69.9313 16.5134 70.665 17.4146 70.665H18.2684V74.5863H10.5721V58.27H69.4259V74.585H61.7296V70.6637H62.5846V70.665ZM70.4409 35.6912C68.4284 35.6912 67.1034 34.6213 66.7096 32.7925H74.1734C73.7796 34.6213 72.4546 35.6912 70.4409 35.6912ZM72.2671 30.3787H65.9959L62.8584 25.795H66.9246L72.2671 30.3787ZM27.5246 6.28C27.5246 5.7325 27.9696 5.2875 28.5171 5.2875H51.4809C52.0284 5.2875 52.4734 5.7325 52.4734 6.28V23.3838H27.5246V6.28ZM13.0696 25.7962H17.8671L14.0771 30.38H7.73086L13.0696 25.7962ZM5.82961 32.7913H13.2934C12.8996 34.6213 11.5746 35.69 9.56086 35.69C7.54711 35.6912 6.22336 34.6213 5.82961 32.7913Z" fill="#807166"/>
<path d="M27.9426 52.5399H52.0563C52.7226 52.5399 53.2626 51.9999 53.2626 51.3337V42.0324C53.2626 41.3662 52.7226 40.8262 52.0563 40.8262H27.9426C27.2763 40.8262 26.7363 41.3662 26.7363 42.0324V51.3337C26.7363 51.9999 27.2763 52.5399 27.9426 52.5399ZM29.1476 43.2387H50.8488V50.1274H29.1476V43.2387Z" fill="#807166"/>
<path d="M43.9452 14.6534C43.8002 14.2246 43.4064 13.9121 42.9289 13.9121H35.3389C34.7389 13.9121 34.2539 14.3984 34.2539 14.9971V17.1246C34.2539 19.8159 36.4427 22.0046 39.1339 22.0046C41.8252 22.0046 44.0139 19.8159 44.0139 17.1246V16.8221C44.8327 16.7096 45.4439 16.9434 45.6677 17.5096C45.8602 17.9971 45.7114 18.6446 45.0552 18.9396C44.5077 19.1846 44.2639 19.8271 44.5102 20.3746C44.6914 20.7771 45.0864 21.0159 45.5002 21.0159C45.6489 21.0159 45.8002 20.9846 45.9439 20.9196C47.5927 20.1796 48.3414 18.3696 47.6864 16.7121C47.1877 15.4496 45.8727 14.4734 43.9452 14.6534ZM41.8439 17.1259C41.8439 18.6196 40.6289 19.8359 39.1339 19.8359C37.6402 19.8359 36.4239 18.6209 36.4239 17.1259V16.0834H41.8439V17.1259Z" fill="#807166"/>
<path d="M37.4171 12.6649C37.6708 12.6649 37.9246 12.5774 38.1308 12.3974C38.5821 12.0036 38.6296 11.3174 38.2346 10.8661C38.1533 10.7724 37.7533 10.2861 37.9321 9.94237L38.0783 9.67112C38.3333 9.21237 38.5983 8.73987 38.5133 7.81737C38.4596 7.22112 37.9446 6.77237 37.3333 6.83612C36.7371 6.89112 36.2971 7.41862 36.3521 8.01612C36.3746 8.26987 36.3746 8.26987 36.1821 8.61487L36.0058 8.94112C35.4596 9.98987 35.6808 11.2424 36.5983 12.2936C36.8133 12.5386 37.1133 12.6649 37.4171 12.6649Z" fill="#807166"/>
<path d="M41.6538 12.6652C41.9075 12.6652 42.1613 12.5777 42.3675 12.3977C42.8188 12.004 42.8663 11.3177 42.4713 10.8665C42.39 10.7727 41.99 10.2865 42.1675 9.94396L42.3138 9.67396C42.5688 9.21521 42.8338 8.74146 42.75 7.82021C42.695 7.22396 42.175 6.78896 41.57 6.83771C40.9725 6.89271 40.5325 7.42021 40.5875 8.01771C40.6113 8.27146 40.6113 8.27146 40.4175 8.61771L40.2413 8.94271C39.6963 9.99146 39.9175 11.244 40.8338 12.2952C41.0513 12.539 41.3513 12.6652 41.6538 12.6652Z" fill="#807166"/>
</svg>
