<svg width="80" height="80" viewBox="0 0 80 80" fill="none" xmlns="http://www.w3.org/2000/svg">
<g clip-path="url(#clip0_4084_378)">
<path d="M9.33333 10.6667H1.33333C0.597333 10.6667 0 10.0693 0 9.33333V1.33333C0 0.597333 0.597333 0 1.33333 0H9.33333C10.0693 0 10.6667 0.597333 10.6667 1.33333V9.33333C10.6667 10.0693 10.0693 10.6667 9.33333 10.6667ZM2.66667 8H8V2.66667H2.66667V8Z" fill="#807166"/>
<path d="M78.6673 10.6667H70.6673C69.9313 10.6667 69.334 10.0693 69.334 9.33333V1.33333C69.334 0.597333 69.9313 0 70.6673 0H78.6673C79.4033 0 80.0007 0.597333 80.0007 1.33333V9.33333C80.0007 10.0693 79.4033 10.6667 78.6673 10.6667ZM72.0007 8H77.334V2.66667H72.0007V8Z" fill="#807166"/>
<path d="M78.6673 79.9997H70.6673C69.9313 79.9997 69.334 79.4023 69.334 78.6663V70.6663C69.334 69.9303 69.9313 69.333 70.6673 69.333H78.6673C79.4033 69.333 80.0007 69.9303 80.0007 70.6663V78.6663C80.0007 79.4023 79.4033 79.9997 78.6673 79.9997ZM72.0007 77.333H77.334V71.9997H72.0007V77.333Z" fill="#807166"/>
<path d="M38.6667 53.3333H1.33333C0.597333 53.3333 0 52.736 0 52V41.3333C0 40.5973 0.597333 40 1.33333 40H38.6667C39.4027 40 40 40.5973 40 41.3333V52C40 52.736 39.4027 53.3333 38.6667 53.3333ZM2.66667 50.6667H37.3333V42.6667H2.66667V50.6667Z" fill="#807166"/>
<path d="M8.00065 47.9997H6.66732C5.93132 47.9997 5.33398 47.4023 5.33398 46.6663C5.33398 45.9303 5.93132 45.333 6.66732 45.333H8.00065C8.73665 45.333 9.33398 45.9303 9.33398 46.6663C9.33398 47.4023 8.73665 47.9997 8.00065 47.9997Z" fill="#807166"/>
<path d="M14.6667 47.9997H13.3333C12.5973 47.9997 12 47.4023 12 46.6663C12 45.9303 12.5973 45.333 13.3333 45.333H14.6667C15.4027 45.333 16 45.9303 16 46.6663C16 47.4023 15.4027 47.9997 14.6667 47.9997Z" fill="#807166"/>
<path d="M21.3327 47.9997H19.9993C19.2633 47.9997 18.666 47.4023 18.666 46.6663C18.666 45.9303 19.2633 45.333 19.9993 45.333H21.3327C22.0687 45.333 22.666 45.9303 22.666 46.6663C22.666 47.4023 22.0687 47.9997 21.3327 47.9997Z" fill="#807166"/>
<path d="M38.6667 80.0003H1.33333C0.597333 80.0003 0 79.403 0 78.667V52.0003C0 51.2643 0.597333 50.667 1.33333 50.667H38.6667C39.4027 50.667 40 51.2643 40 52.0003V78.667C40 79.403 39.4027 80.0003 38.6667 80.0003ZM2.66667 77.3337H37.3333V53.3337H2.66667V77.3337Z" fill="#807166"/>
<path d="M70.6667 76H38.6667C37.9307 76 37.3333 75.4027 37.3333 74.6667V42.6667H5.33333C4.59733 42.6667 4 42.0693 4 41.3333V9.33333C4 8.59733 4.59733 8 5.33333 8H8V5.33333C8 4.59733 8.59733 4 9.33333 4H70.6667C71.4027 4 72 4.59733 72 5.33333V8H74.6667C75.4027 8 76 8.59733 76 9.33333V70.6667C76 71.4027 75.4027 72 74.6667 72H72V74.6667C72 75.4027 71.4027 76 70.6667 76ZM40 73.3333H69.3333V70.6667C69.3333 69.9307 69.9307 69.3333 70.6667 69.3333H73.3333V10.6667H70.6667C69.9307 10.6667 69.3333 10.0693 69.3333 9.33333V6.66667H10.6667V9.33333C10.6667 10.0693 10.0693 10.6667 9.33333 10.6667H6.66667V40H38.6667C39.4027 40 40 40.5973 40 41.3333V73.3333Z" fill="#807166"/>
<path d="M23.9993 37.333C23.2633 37.333 22.666 36.7357 22.666 35.9997V22.6663C22.666 21.9303 23.2633 21.333 23.9993 21.333C24.7353 21.333 25.3327 21.9303 25.3327 22.6663V35.9997C25.3327 36.7357 24.7353 37.333 23.9993 37.333Z" fill="#807166"/>
<path d="M19.9997 28C19.6583 28 19.317 27.8693 19.057 27.6093C18.5357 27.088 18.5357 26.2453 19.057 25.724L23.057 21.724C23.577 21.2027 24.4223 21.2027 24.9423 21.724C25.4637 22.2453 25.4637 23.088 24.9423 23.6093L20.9423 27.6093C20.6823 27.8693 20.341 28 19.9997 28Z" fill="#807166"/>
<path d="M27.9997 28C27.6583 28 27.317 27.8693 27.057 27.6093L23.057 23.6093C22.5357 23.088 22.5357 22.2453 23.057 21.724C23.577 21.2027 24.4224 21.2027 24.9424 21.724L28.9424 25.724C29.4637 26.2453 29.4637 27.088 28.9424 27.6093C28.6824 27.8693 28.341 28 27.9997 28Z" fill="#807166"/>
<path d="M57.3327 58.6667H43.9993C43.2633 58.6667 42.666 58.0693 42.666 57.3333C42.666 56.5973 43.2633 56 43.9993 56H57.3327C58.0687 56 58.666 56.5973 58.666 57.3333C58.666 58.0693 58.0687 58.6667 57.3327 58.6667Z" fill="#807166"/>
<path d="M57.3337 58.667C56.9923 58.667 56.651 58.5363 56.391 58.2763L52.391 54.2763C51.8697 53.755 51.8697 52.9123 52.391 52.391C52.911 51.8697 53.7563 51.8697 54.2763 52.391L58.2763 56.391C58.7977 56.9123 58.7977 57.755 58.2763 58.2763C58.0163 58.5363 57.675 58.667 57.3337 58.667Z" fill="#807166"/>
<path d="M53.3337 62.667C52.9923 62.667 52.651 62.5363 52.391 62.2763C51.8697 61.755 51.8697 60.9123 52.391 60.391L56.391 56.391C56.911 55.8697 57.7563 55.8697 58.2763 56.391C58.7977 56.9123 58.7977 57.755 58.2763 58.2763L54.2763 62.2763C54.0163 62.5363 53.675 62.667 53.3337 62.667Z" fill="#807166"/>
<path d="M43.9997 38.6664C43.6583 38.6664 43.317 38.5357 43.057 38.2757C42.5357 37.7544 42.5357 36.9117 43.057 36.3904L52.3903 27.057C52.9103 26.5357 53.7557 26.5357 54.2757 27.057C54.797 27.5783 54.797 28.421 54.2757 28.9424L44.9424 38.2757C44.6824 38.5357 44.341 38.6664 43.9997 38.6664Z" fill="#807166"/>
<path d="M53.334 29.3337H46.6673C45.9313 29.3337 45.334 28.7363 45.334 28.0003C45.334 27.2643 45.9313 26.667 46.6673 26.667H53.334C54.07 26.667 54.6673 27.2643 54.6673 28.0003C54.6673 28.7363 54.07 29.3337 53.334 29.3337Z" fill="#807166"/>
<path d="M53.3333 36.0003C52.5973 36.0003 52 35.403 52 34.667V28.0003C52 27.2643 52.5973 26.667 53.3333 26.667C54.0693 26.667 54.6667 27.2643 54.6667 28.0003V34.667C54.6667 35.403 54.0693 36.0003 53.3333 36.0003Z" fill="#807166"/>
</g>
<defs>
<clipPath id="clip0_4084_378">
<rect width="80" height="80" fill="white"/>
</clipPath>
</defs>
</svg>
