<svg width="80" height="80" viewBox="0 0 80 80" fill="none" xmlns="http://www.w3.org/2000/svg">
<path d="M24.9883 55.3431C24.6267 52.3845 22.1064 50.1534 19.1257 50.1534H17.7763V4.6875C17.7763 2.87828 16.3042 1.40625 14.495 1.40625C12.6858 1.40625 11.2138 2.87828 11.2138 4.6875V50.1534H9.86456C6.88378 50.1534 4.36347 52.3845 4.0019 55.3431L1.73847 73.8633C1.59144 75.0664 1.96472 76.2734 2.763 77.175C3.56097 78.0766 4.71394 78.5938 5.92612 78.5938H23.0642C24.2764 78.5938 25.4294 78.0766 26.2275 77.175C27.0255 76.2734 27.3989 75.0662 27.2519 73.8631L24.9883 55.3431ZM13.4014 4.6875C13.4014 4.08437 13.8921 3.59375 14.4952 3.59375C15.0983 3.59375 15.5889 4.08437 15.5889 4.6875V50.1534H13.4014V4.6875ZM9.86472 52.3409H19.1258C21.0333 52.3409 22.5858 53.7152 22.8171 55.6086L23.0661 57.6466H5.92425L6.17331 55.6086C6.40472 53.7152 7.95722 52.3409 9.86472 52.3409ZM24.5894 75.7252C24.2007 76.1644 23.6589 76.4062 23.0641 76.4062H20.9592V70.7352C20.9592 70.1311 20.4696 69.6414 19.8655 69.6414C19.2614 69.6414 18.7717 70.1311 18.7717 70.7352V76.4062H15.5889V73.5606C15.5889 72.9566 15.0992 72.4669 14.4952 72.4669C13.8911 72.4669 13.4014 72.9566 13.4014 73.5606V76.4062H10.2185V67.6102C10.2185 67.0061 9.72878 66.5164 9.12472 66.5164C8.52065 66.5164 8.03097 67.0061 8.03097 67.6102V76.4062H5.92612C5.33128 76.4062 4.78972 76.1644 4.40081 75.7252C4.0119 75.2859 3.83769 74.7191 3.90972 74.1286L5.65675 59.8341H23.3333L25.0803 74.1286C25.1527 74.7189 24.9783 75.2859 24.5894 75.7252ZM15.5889 63.2275V69.8262C15.5889 70.4303 15.0992 70.92 14.4952 70.92C13.8911 70.92 13.4014 70.4303 13.4014 69.8262V63.2275C13.4014 62.6234 13.8911 62.1338 14.4952 62.1338C15.0992 62.1338 15.5889 62.6234 15.5889 63.2275ZM77.1983 34.8134H72.7649V22.3406C72.7649 22.1292 72.7035 21.9223 72.5885 21.745L69.4633 16.9314C69.2616 16.6208 68.9163 16.4333 68.546 16.4333H66.7663V13.4075H70.1003C70.5111 13.4075 70.8872 13.1773 71.0741 12.8117C71.261 12.4459 71.2274 12.0064 70.9867 11.6734L63.898 1.85953C63.6924 1.57484 63.3625 1.40625 63.0114 1.40625H49.4889C48.8849 1.40625 48.3952 1.89594 48.3952 2.5V7.2175C48.3952 7.82156 48.8849 8.31125 49.4889 8.31125H53.7302L50.2192 14.3927C49.9172 14.9158 50.0966 15.5847 50.6196 15.8867C50.7919 15.9863 50.9799 16.0334 51.1653 16.0334C51.5433 16.0334 51.911 15.8373 52.1136 15.4864L55.6246 9.405L57.6197 12.8605C57.815 13.1989 58.1761 13.4073 58.5669 13.4073H59.3038V16.4331H57.5239C57.1535 16.4331 56.8083 16.6206 56.6066 16.9312L53.4814 21.7448C53.3664 21.9222 53.305 22.1289 53.305 22.3405V34.8133H36.7249C36.1208 34.8133 35.6311 35.303 35.6311 35.907V40.7367C35.6311 41.3408 36.1208 41.8305 36.7249 41.8305H38.2083L42.5838 77.6327C42.6508 78.1813 43.1167 78.5938 43.6694 78.5938H70.2538C70.8064 78.5938 71.2724 78.1813 71.3394 77.6327L75.715 41.8305H77.1983C77.8024 41.8305 78.2921 41.3408 78.2921 40.7367V35.907C78.2921 35.3031 77.8024 34.8134 77.1983 34.8134ZM56.5717 6.67063C56.3764 6.33219 56.0153 6.12375 55.6246 6.12375H50.5825V3.59375H62.4521L67.961 11.22H59.1983L56.5717 6.67063ZM61.4913 13.4075H64.5788V16.4333H61.4913V13.4075ZM58.118 18.6206H67.952L69.6571 21.2467H56.4131L58.118 18.6206ZM55.4927 23.4342H70.5774V34.8133H55.4927V23.4342ZM46.5685 53.9573H58.7853V56.5684C58.7853 57.6884 57.8741 58.5997 56.7541 58.5997H48.5997C47.4797 58.5997 46.5685 57.6884 46.5685 56.5684V53.9573ZM58.7852 51.7698H46.5683V37.0009H58.7852V51.7698ZM37.8186 37.0009H44.381V39.6431H37.8186V37.0009ZM69.2855 76.4062H44.6375L40.4121 41.8305H44.381V56.5684C44.381 58.8947 46.2735 60.7872 48.5997 60.7872H56.7541C59.0803 60.7872 60.9728 58.8947 60.9728 56.5684V41.8305H73.5114L69.2855 76.4062ZM76.1046 39.643H60.9727V37.0008H76.1046V39.643ZM35.4221 5.90906V2.5C35.4221 1.89594 35.9117 1.40625 36.5158 1.40625C37.1199 1.40625 37.6096 1.89594 37.6096 2.5V5.90906C37.6096 6.51312 37.1199 7.00281 36.5158 7.00281C35.9117 7.00281 35.4221 6.51312 35.4221 5.90906ZM35.4221 15.485V12.0759C35.4221 11.4719 35.9117 10.9822 36.5158 10.9822C37.1199 10.9822 37.6096 11.4719 37.6096 12.0759V15.485C37.6096 16.0891 37.1199 16.5787 36.5158 16.5787C35.9117 16.5787 35.4221 16.0891 35.4221 15.485ZM38.5055 8.9925C38.5055 8.38844 38.9952 7.89875 39.5992 7.89875H43.0083C43.6124 7.89875 44.1021 8.38844 44.1021 8.9925C44.1021 9.59656 43.6124 10.0863 43.0083 10.0863H39.5992C38.9952 10.0863 38.5055 9.59656 38.5055 8.9925ZM33.4324 10.0863H30.0233C29.4192 10.0863 28.9296 9.59656 28.9296 8.9925C28.9296 8.38844 29.4192 7.89875 30.0233 7.89875H33.4324C34.0364 7.89875 34.5261 8.38844 34.5261 8.9925C34.5261 9.59656 34.0364 10.0863 33.4324 10.0863ZM35.0906 29.9977H31.6816C31.0775 29.9977 30.5878 29.508 30.5878 28.9039C30.5878 28.2998 31.0775 27.8102 31.6816 27.8102H35.0906C35.6947 27.8102 36.1844 28.2998 36.1844 28.9039C36.1844 29.508 35.6947 29.9977 35.0906 29.9977ZM29.6917 22.4114V25.8205C29.6917 26.4245 29.2021 26.9142 28.598 26.9142C27.9939 26.9142 27.5042 26.4245 27.5042 25.8205V22.4114C27.5042 21.8073 27.9939 21.3177 28.598 21.3177C29.2021 21.3177 29.6917 21.8073 29.6917 22.4114ZM21.0117 28.9039C21.0117 28.2998 21.5014 27.8102 22.1055 27.8102H25.5146C26.1186 27.8102 26.6083 28.2998 26.6083 28.9039C26.6083 29.508 26.1186 29.9977 25.5146 29.9977H22.1055C21.5014 29.9977 21.0117 29.508 21.0117 28.9039ZM29.6917 31.9873V35.3964C29.6917 36.0005 29.2021 36.4902 28.598 36.4902C27.9939 36.4902 27.5042 36.0005 27.5042 35.3964V31.9873C27.5042 31.3833 27.9939 30.8936 28.598 30.8936C29.2021 30.8936 29.6917 31.3834 29.6917 31.9873Z" fill="#807166"/>
</svg>
