<svg width="80" height="80" viewBox="0 0 80 80" fill="none" xmlns="http://www.w3.org/2000/svg">
<g clip-path="url(#clip0_4084_397)">
<path d="M36.4746 71.7687C36.4746 73.7123 38.056 75.2938 39.9998 75.2938C41.9435 75.2938 43.5248 73.7124 43.5248 71.7687V67.0623C43.5248 65.1187 41.9434 63.5371 39.9998 63.5371C38.0562 63.5371 36.4746 65.1185 36.4746 67.0623V71.7687ZM38.8184 67.0623C38.8184 66.4109 39.3484 65.8809 39.9998 65.8809C40.6512 65.8809 41.181 66.4109 41.181 67.0623V71.7687C41.181 72.4201 40.651 72.9501 39.9998 72.9501C39.3484 72.9501 38.8184 72.4201 38.8184 71.7687V67.0623Z" fill="#807166"/>
<path d="M39.9998 61.1743C41.9435 61.1743 43.5248 59.5929 43.5248 57.6492C43.5248 55.7054 41.9434 54.124 39.9998 54.124C38.0562 54.124 36.4746 55.7054 36.4746 57.6492C36.4746 59.5929 38.0562 61.1743 39.9998 61.1743ZM39.9998 56.4678C40.6512 56.4678 41.181 56.9978 41.181 57.6492C41.181 58.3006 40.651 58.8306 39.9998 58.8306C39.3484 58.8306 38.8184 58.3004 38.8184 57.6492C38.8184 56.9976 39.3484 56.4678 39.9998 56.4678Z" fill="#807166"/>
<path d="M12.9375 19.3525C12.2903 19.3525 11.7656 19.8771 11.7656 20.5244V22.4071C11.7656 23.0544 12.2903 23.5789 12.9375 23.5789C13.5848 23.5789 14.1094 23.0544 14.1094 22.4071V20.5244C14.1094 19.8772 13.5847 19.3525 12.9375 19.3525Z" fill="#807166"/>
<path d="M31.7637 23.5789C32.411 23.5789 32.9355 23.0544 32.9355 22.4071V20.5244C32.9355 19.8771 32.411 19.3525 31.7637 19.3525C31.1163 19.3525 30.5918 19.8771 30.5918 20.5244V22.4071C30.5918 23.0544 31.1163 23.5789 31.7637 23.5789Z" fill="#807166"/>
<path d="M22.3521 24.6992C23.6802 24.6992 24.9433 24.1237 25.8177 23.1206C26.243 22.6326 26.1921 21.8925 25.7041 21.4672C25.2161 21.0419 24.476 21.0928 24.0507 21.5808C23.6153 22.0803 23.0119 22.3555 22.3519 22.3555C21.7013 22.3555 21.0821 22.073 20.653 21.5808C20.2277 21.0926 19.4874 21.0422 18.9996 21.4672C18.5116 21.8925 18.461 22.6328 18.8861 23.1206C19.7605 24.1239 21.0238 24.6992 22.3521 24.6992Z" fill="#807166"/>
<path d="M73.4548 38.8155C77.0639 38.8155 80 35.8794 80 32.2705V20.6612C80 17.0522 77.0639 14.1161 73.4548 14.1161H70.7095C70.0622 14.1161 69.5377 14.6406 69.5377 15.288C69.5377 15.9352 70.0622 16.4598 70.7095 16.4598H73.4548C75.7714 16.4598 77.6562 18.3445 77.6562 20.6612V32.2705C77.6562 34.587 75.7716 36.4717 73.4548 36.4717H65.8806V32.9372C65.8806 30.9936 64.2992 29.412 62.3556 29.412C60.4119 29.412 58.8305 30.9934 58.8305 32.9372V36.4717H51.2563C48.9397 36.4717 47.0548 34.5872 47.0548 32.2705V20.6612C47.0548 18.3447 48.9395 16.4598 51.2563 16.4598H65.2186C65.8659 16.4598 66.3905 15.9352 66.3905 15.288C66.3905 14.6406 65.8659 14.1161 65.2186 14.1161H51.2563C47.6472 14.1161 44.7111 17.0522 44.7111 20.6612V32.2705C44.7111 35.8794 47.6472 38.8155 51.2563 38.8155H58.8306V42.358H37.2334C36.3125 38.4372 33.8977 35.0761 30.5166 32.9477C33.1916 31.2509 35.268 28.7259 36.4725 25.8728C39.7128 25.8716 42.3486 23.2352 42.3486 19.9945C42.3486 16.7111 39.6659 14.1044 36.4652 14.1144C35.118 10.8797 32.7208 8.26844 29.7511 6.62562C29.3386 2.91344 26.1566 0 22.3509 0C18.5522 0 15.3742 2.90281 14.9527 6.60547C11.9855 8.24578 9.58781 10.8639 8.23641 14.1147C5.02984 14.1059 2.35328 16.7167 2.35328 19.9945C2.35328 23.2394 4.99578 25.8748 8.22656 25.8748C9.41547 28.6884 11.4784 31.2286 14.1869 32.9466C10.8047 35.075 8.38922 38.4366 7.4675 42.3581H4.70172C2.10922 42.358 0 44.4672 0 47.0597C0 49.6522 2.10922 51.7614 4.70172 51.7614H4.70641V69.4153C4.70641 75.2517 9.45469 80 15.2911 80H28.2072C28.8545 80 29.3791 79.4755 29.3791 78.8281C29.3791 78.1808 28.8545 77.6562 28.2072 77.6562H15.2911C10.747 77.6562 7.05016 73.9594 7.05016 69.4153V51.7612H72.9498V69.4152C72.9498 73.9592 69.253 77.6561 64.7089 77.6561H33.6981C33.0508 77.6561 32.5262 78.1806 32.5262 78.828C32.5262 79.4753 33.0508 79.9998 33.6981 79.9998H64.7089C70.5455 79.9998 75.2936 75.2516 75.2936 69.4152V51.7612H75.2983C77.8908 51.7612 80 49.652 80 47.0595C80 44.467 77.8908 42.3578 75.2983 42.3578H65.8806V38.8153H73.4548V38.8155ZM40.0047 19.9945C40.0047 21.6694 38.8334 23.0748 37.2672 23.4373C37.7928 21.192 37.7942 18.8469 37.253 16.5455C38.8309 16.9048 40.0047 18.3173 40.0047 19.9945ZM22.3509 2.34375C24.4436 2.34375 26.2609 3.62953 27.0434 5.45156C24.0541 4.48422 20.7661 4.43828 17.6656 5.43391C18.4522 3.62109 20.2648 2.34375 22.3509 2.34375ZM22.348 7.05016C27.3616 7.0625 31.8789 9.94906 34.0125 14.3673C32.3808 14.5397 29.6614 14.6089 27.4375 13.2062C24.3605 11.2666 20.3192 11.2758 17.2628 13.2062C15.0389 14.608 12.3198 14.5392 10.6884 14.367C12.8061 9.96719 17.275 7.05016 22.348 7.05016ZM4.69688 19.9945C4.69688 18.3091 5.87719 16.9048 7.44812 16.5461C6.90594 18.8489 6.90641 21.1945 7.43141 23.4389C5.86125 23.0722 4.69688 21.6628 4.69688 19.9945ZM9.84547 16.6269C11.6066 16.86 15.3287 17.1959 18.5134 15.1884C20.7967 13.7464 23.8655 13.7252 26.1875 15.1889C28.7647 16.8144 31.8347 17.0275 34.8563 16.6272C37.058 24.7138 30.9981 32.9452 22.3509 32.9452C13.7805 32.9452 7.62219 24.7827 9.84547 16.6269ZM16.7052 34.2261C18.4664 34.9212 20.3717 35.2887 22.3509 35.2887C24.3313 35.2887 26.2372 34.9214 27.9983 34.2269C31.3542 35.8519 33.8164 38.8069 34.8125 42.358H9.88844C10.8853 38.8064 13.3483 35.8511 16.7052 34.2261ZM77.6562 47.0597C77.6562 48.3598 76.5984 49.4177 75.2983 49.4177C71.7175 49.4177 8.20781 49.4177 4.70172 49.4177C3.40156 49.4177 2.34375 48.3598 2.34375 47.0597C2.34375 45.7595 3.40156 44.7017 4.70172 44.7017H75.2983C76.5984 44.7017 77.6562 45.7594 77.6562 47.0597ZM61.1744 32.9372C61.1744 32.2858 61.7044 31.7558 62.3558 31.7558C63.0072 31.7558 63.537 32.2858 63.537 32.9372V42.3548H61.1744V32.9372Z" fill="#807166"/>
</g>
<defs>
<clipPath id="clip0_4084_397">
<rect width="80" height="80" fill="white"/>
</clipPath>
</defs>
</svg>
