<svg width="80" height="80" viewBox="0 0 80 80" fill="none" xmlns="http://www.w3.org/2000/svg">
<path fill-rule="evenodd" clip-rule="evenodd" d="M60.6981 67.4348L58.4259 63.4352H21.5751L19.3029 67.4348H60.6981ZM69.2243 21.8009L66.7749 16.7162L61.6902 14.2668C60.6671 13.7752 60.6671 12.3136 61.6902 11.8219L66.7749 9.37257L69.2243 4.28786C69.7159 3.26472 71.182 3.26472 71.6736 4.28786L74.123 9.37257L79.2077 11.8219C80.2308 12.3136 80.2308 13.7752 79.2077 14.2668L74.123 16.7162L71.6736 21.8009C71.182 22.824 69.7159 22.824 69.2243 21.8009ZM65.4108 13.0444L68.3827 14.475C68.6618 14.6079 68.8832 14.8338 69.0161 15.1128L70.4467 18.0848L71.8818 15.1128C72.0147 14.8338 72.2361 14.6079 72.5152 14.475L75.4872 13.0444L72.5152 11.6137C72.2361 11.4809 72.0147 11.255 71.8818 10.9804L70.4467 8.00838L69.0161 10.9804C68.8832 11.255 68.6618 11.4809 68.3827 11.6137L65.4108 13.0444ZM8.33181 21.8009L5.88247 16.7162L0.793332 14.2668C-0.225381 13.7752 -0.225381 12.3136 0.793332 11.8219L5.88247 9.37257L8.33181 4.28786C8.82345 3.26472 10.2851 3.26472 10.7767 4.28786L13.2261 9.37257L18.3108 11.8219C19.3339 12.3136 19.3339 13.7752 18.3108 14.2668L13.2261 16.7162L10.7767 21.8009C10.2851 22.824 8.81902 22.824 8.33181 21.8009ZM4.51385 13.0444L7.48584 14.475C7.76487 14.6079 7.99076 14.8338 8.12364 15.1128L9.55427 18.0848L10.9849 15.1128C11.1178 14.8338 11.3437 14.6079 11.6183 14.475L14.5903 13.0444L11.6183 11.6137C11.3437 11.4809 11.1178 11.255 10.9849 10.9804L9.55427 8.00838L8.12364 10.9804C7.98633 11.255 7.76487 11.4809 7.48584 11.6137L4.51385 13.0444ZM62.6381 34.4019L60.6494 19.5021H51.4987C49.7624 24.1129 45.3022 28.5687 40.9616 32.9137C40.4346 33.4408 39.5664 33.4408 39.0394 32.9137C34.6988 28.5687 30.243 24.1129 28.5023 19.5021H19.3516L17.3674 34.4019H20.2153C20.9639 34.4019 21.5707 35.0087 21.5707 35.7617V38.4812C22.4388 37.9497 23.4575 37.6397 24.5471 37.6397H35.6688C37.4006 37.6397 38.9552 38.4192 40.0005 39.6461C41.0458 38.4192 42.6004 37.6397 44.3323 37.6397H55.4584C56.548 37.6397 57.5667 37.9497 58.4304 38.4812V35.7617C58.4304 35.0087 59.0372 34.4019 59.7901 34.4019H62.6381ZM14.6257 34.4019L16.8181 17.9652C16.9067 17.2875 17.4825 16.7826 18.1646 16.7826H27.8202C27.7715 16.3928 27.7494 16.0031 27.7494 15.6089C27.7494 11.8529 30.8011 8.80121 34.5526 8.80121C37.157 8.80121 38.7559 9.85535 40.0005 11.5783C41.2451 9.85535 42.8485 8.80121 45.4484 8.80121C49.1999 8.80121 52.2561 11.8529 52.2561 15.6089C52.2561 16.0031 52.2295 16.3928 52.1808 16.7826H61.8408C62.5185 16.7826 63.0943 17.2875 63.1873 17.9652L65.3753 34.4019H68.5865C69.335 34.4019 69.9462 35.0087 69.9462 35.7617V52.0611C69.9418 54.6123 68.2764 56.7782 65.9733 57.5311L68.8434 63.9047C69.366 65.0696 69.3439 66.3408 68.8832 67.4348H74.092C74.8405 67.4348 75.4517 68.0416 75.4517 68.7946C75.4517 69.5431 74.8405 70.1499 74.092 70.1499H5.90904C5.16051 70.1499 4.55371 69.5431 4.55371 68.7946C4.55371 68.0416 5.16051 67.4348 5.90904 67.4348H11.1178C10.6394 66.2965 10.6571 65.0298 11.1621 63.9047L14.0277 57.5311C11.7246 56.7782 10.0592 54.6123 10.0592 52.0611V35.7617C10.0592 35.0087 10.666 34.4019 11.4145 34.4019H14.6257ZM34.5526 11.5163C32.2981 11.5163 30.4645 13.3544 30.4645 15.6089C30.4645 20.1887 35.1594 25.1715 40.0005 30.0303C44.8416 25.1715 49.541 20.1931 49.541 15.6089C49.541 13.3544 47.7029 11.5163 45.4484 11.5163C43.4818 11.5163 42.4941 12.2958 41.2141 14.8515C40.718 15.8525 39.2874 15.8525 38.7869 14.8515C37.5069 12.2958 36.5192 11.5163 34.5526 11.5163ZM64.4009 76.4836H15.6001C14.8516 76.4836 14.2403 75.8768 14.2403 75.1239C14.2403 74.3753 14.8516 73.7685 15.6001 73.7685H64.4009C65.1539 73.7685 65.7607 74.3753 65.7607 75.1239C65.7607 75.8768 65.1539 76.4836 64.4009 76.4836ZM16.7606 66.4249C16.7783 66.3895 16.796 66.3496 16.8181 66.3142L19.6041 61.4067C19.8433 60.9815 20.295 60.7157 20.7823 60.7157H59.2188C59.706 60.7157 60.1577 60.9815 60.4013 61.4067L63.1829 66.3142C63.205 66.3496 63.2227 66.3851 63.2405 66.4249C63.6258 67.2886 64.6489 67.6695 65.5038 67.2842C66.3675 66.8989 66.7528 65.8802 66.363 65.0209L63.1253 57.819H16.8757L13.638 65.0209C12.7034 67.0982 15.8481 68.4535 16.7606 66.4249ZM41.3603 46.3031H58.4304V43.3312C58.4304 41.6879 57.0972 40.3547 55.4584 40.3547H44.3323C42.6935 40.3547 41.3603 41.6879 41.3603 43.3312V46.3031ZM59.7901 49.0182H20.2153C19.4668 49.0182 18.8556 48.4159 18.8556 47.6629V37.117H12.7743V52.0611C12.7743 53.7353 14.1385 55.0995 15.8171 55.0995H64.1883C65.8625 55.0995 67.2267 53.7353 67.2267 52.0611V37.117H61.1455V47.6629C61.1455 48.4114 60.5387 49.0182 59.7901 49.0182ZM21.5707 43.3134V46.3031H38.6452V43.3312C38.6452 41.6879 37.3076 40.3547 35.6688 40.3547H24.5471C22.9127 40.3547 21.5795 41.6835 21.5707 43.3134Z" fill="#807166"/>
</svg>
