<svg width="80" height="80" viewBox="0 0 80 80" fill="none" xmlns="http://www.w3.org/2000/svg">
<g clip-path="url(#clip0_4083_369)">
<path d="M78.75 68.75H73.75V25C73.75 22.9325 72.0675 21.25 70 21.25H63.75C63.0588 21.25 62.5 21.81 62.5 22.5C62.5 23.19 63.0588 23.75 63.75 23.75H70C70.69 23.75 71.25 24.3112 71.25 25V68.75H48.75C48.5563 68.75 48.3638 68.795 48.1913 68.8812L45.955 70H34.0462L31.81 68.8812C31.6362 68.795 31.4438 68.75 31.25 68.75H8.75V25C8.75 24.3112 9.31 23.75 10 23.75H16.25C16.9412 23.75 17.5 23.19 17.5 22.5C17.5 21.81 16.9412 21.25 16.25 21.25H10C7.9325 21.25 6.25 22.9325 6.25 25V68.75H1.25C0.55875 68.75 0 69.3088 0 70V75C0 77.0675 1.6825 78.75 3.75 78.75H76.25C78.3175 78.75 80 77.0675 80 75V70C80 69.3088 79.4413 68.75 78.75 68.75ZM77.5 75C77.5 75.69 76.94 76.25 76.25 76.25H3.75C3.06 76.25 2.5 75.69 2.5 75V71.25H30.955L33.1912 72.3688C33.3638 72.455 33.5563 72.5 33.75 72.5H46.25C46.4437 72.5 46.6362 72.455 46.8087 72.3688L49.045 71.25H77.5V75Z" fill="#807166"/>
<path d="M18.75 48.75V56.25C18.75 57.6287 19.8712 58.75 21.25 58.75H58.75C60.1287 58.75 61.25 57.6287 61.25 56.25V48.75C61.25 47.3713 60.1287 46.25 58.75 46.25H41.25V39.8225C43.4013 39.2638 45 37.3225 45 35C45 32.2425 42.7575 30 40 30C37.2425 30 35 32.2425 35 35C35 37.3225 36.5987 39.2638 38.75 39.8225V46.25H21.25C19.8712 46.25 18.75 47.3713 18.75 48.75ZM37.5 35C37.5 33.6212 38.6213 32.5 40 32.5C41.3787 32.5 42.5 33.6212 42.5 35C42.5 36.3787 41.3787 37.5 40 37.5C38.6213 37.5 37.5 36.3787 37.5 35ZM58.75 56.25H21.25V48.75H58.75V56.25Z" fill="#807166"/>
<path d="M30 51.25H25C24.3088 51.25 23.75 51.8088 23.75 52.5C23.75 53.1912 24.3088 53.75 25 53.75H30C30.6912 53.75 31.25 53.1912 31.25 52.5C31.25 51.8088 30.6912 51.25 30 51.25Z" fill="#807166"/>
<path d="M33.75 52.5C33.75 53.1912 34.3088 53.75 35 53.75H55C55.6912 53.75 56.25 53.1912 56.25 52.5C56.25 51.8088 55.6912 51.25 55 51.25H35C34.3088 51.25 33.75 51.8088 33.75 52.5Z" fill="#807166"/>
<path d="M32.0451 32.045C32.3776 32.045 32.6951 31.9138 32.9288 31.6788C34.8176 29.79 37.3288 28.75 40.0001 28.75C42.6713 28.75 45.1826 29.79 47.0713 31.6788C47.3063 31.9138 47.6226 32.045 47.9551 32.045C48.2876 32.045 48.6051 31.9138 48.8388 31.6788L52.3738 28.1425C52.8626 27.6537 52.8626 26.8638 52.3738 26.375C49.0688 23.07 44.6738 21.25 40.0001 21.25C35.3263 21.25 30.9313 23.07 27.6263 26.3762C27.1376 26.865 27.1376 27.655 27.6263 28.1437L31.1613 31.68C31.3951 31.9137 31.7126 32.045 32.0451 32.045ZM40.0001 23.75C43.5863 23.75 46.9826 25 49.6863 27.295L47.9113 29.07C45.6851 27.2438 42.9188 26.25 40.0001 26.25C37.0813 26.25 34.3151 27.2438 32.0888 29.0712L30.3138 27.2962C33.0176 25 36.4138 23.75 40.0001 23.75Z" fill="#807166"/>
<path d="M59.4466 19.3038C54.2528 14.11 47.3466 11.25 40.0003 11.25C32.6541 11.25 25.7478 14.11 20.5541 19.3038C20.0653 19.7925 20.0653 20.5825 20.5541 21.0713L24.0916 24.6088C24.5603 25.0775 25.3903 25.0775 25.8591 24.6088C29.6366 20.8313 34.6591 18.75 40.0003 18.75C45.3416 18.75 50.3641 20.8313 54.1403 24.6088C54.3753 24.8438 54.6916 24.975 55.0241 24.975C55.3566 24.975 55.6741 24.8438 55.9078 24.6088L59.4453 21.0713C59.9341 20.5825 59.9341 19.7913 59.4466 19.3038ZM55.0003 21.9812C50.8703 18.2762 45.5916 16.25 40.0003 16.25C34.4091 16.25 29.1303 18.2762 25.0003 21.9812L23.2278 20.2087C27.8316 16.035 33.7403 13.75 40.0003 13.75C46.2603 13.75 52.1691 16.035 56.7728 20.2087L55.0003 21.9812Z" fill="#807166"/>
<path d="M11.25 27.5V65C11.25 65.6912 11.8088 66.25 12.5 66.25H67.5C68.1912 66.25 68.75 65.6912 68.75 65V27.5C68.75 26.81 68.1912 26.25 67.5 26.25H58.75C58.0588 26.25 57.5 26.81 57.5 27.5C57.5 28.19 58.0588 28.75 58.75 28.75H66.25V63.75H13.75V28.75H21.25C21.9412 28.75 22.5 28.19 22.5 27.5C22.5 26.81 21.9412 26.25 21.25 26.25H12.5C11.8088 26.25 11.25 26.81 11.25 27.5Z" fill="#807166"/>
<path d="M17.0188 17.5363C17.5075 18.025 18.2975 18.025 18.7863 17.5363C24.4525 11.8713 31.9875 8.75 40 8.75C48.0125 8.75 55.5462 11.8713 61.2137 17.5363C61.4575 17.78 61.7775 17.9025 62.0975 17.9025C62.4175 17.9025 62.7375 17.78 62.9812 17.5363L66.5163 14.0013C67.005 13.5125 67.005 12.7225 66.5163 12.2337C59.4338 5.15125 50.0163 1.25 40 1.25C29.9838 1.25 20.5662 5.15125 13.4837 12.2337C12.995 12.7225 12.995 13.5125 13.4837 14.0013L17.0188 17.5363ZM40 3.75C48.9313 3.75 57.3512 7.0725 63.8487 13.1325L62.08 14.9012C56.055 9.31375 48.2625 6.25 40 6.25C31.7375 6.25 23.945 9.31375 17.92 14.9012L16.1512 13.1325C22.6488 7.0725 31.0688 3.75 40 3.75Z" fill="#807166"/>
</g>
<defs>
<clipPath id="clip0_4083_369">
<rect width="80" height="80" fill="white"/>
</clipPath>
</defs>
</svg>
