<svg width="80" height="80" viewBox="0 0 80 80" fill="none" xmlns="http://www.w3.org/2000/svg">
<g clip-path="url(#clip0_4085_483)">
<path d="M20.39 31.3989H44.9939C46.1994 31.3989 47.18 30.4183 47.18 29.2128V4.60891C47.18 3.40344 46.1994 2.42266 44.9939 2.42266H20.39C19.1845 2.42266 18.2039 3.40344 18.2039 4.60891V5.12H14.0056V4.16594C14.0056 1.86875 12.1369 0 9.83969 0C7.5425 0 5.67375 1.86875 5.67375 4.16594V47.2394C5.67375 47.8866 6.19844 48.4113 6.84562 48.4113C7.49281 48.4113 8.0175 47.8866 8.0175 47.2394V4.16594C8.0175 3.16109 8.83484 2.34375 9.83969 2.34375C10.8445 2.34375 11.6619 3.16109 11.6619 4.16594V6.29188V11.9391V21.8825V27.5297V71.0036H8.0175V52.5855C8.0175 51.9383 7.49281 51.4136 6.84562 51.4136C6.19844 51.4136 5.67375 51.9383 5.67375 52.5855V71.0036H4.49375C2.01578 71.0036 0 73.0175 0 75.493V78.1372C0 79.157 0.829687 79.9867 1.84953 79.9867H17.8298C18.852 79.9867 19.6838 79.157 19.6838 78.1372V75.493C19.6838 73.0175 17.668 71.0036 15.19 71.0036H14.0055V28.7016H18.2036V29.2127C18.2038 30.4183 19.1845 31.3989 20.39 31.3989ZM17.3402 75.493V77.643H2.34375V75.493C2.34375 74.3098 3.30828 73.3473 4.49375 73.3473H6.84562H12.8337H15.1902C16.3756 73.3473 17.3402 74.3098 17.3402 75.493ZM14.0056 13.1111H18.2038V20.7108H14.0056V13.1111ZM20.5475 4.76641H44.8363V29.0552H20.5475V27.5297V21.8825V11.9392V6.29203V4.76641ZM18.2038 7.46391V10.7673H14.0056V7.46391H18.2038ZM14.0056 26.3578V23.0544H18.2038V26.3578H14.0056Z" fill="#807166"/>
<path d="M79.9994 49.3783C79.9994 46.7344 77.8603 44.5833 75.2309 44.5833H70.7508L69.2166 41.3468C68.2903 39.393 67.5903 38.0601 66.3467 37.3626C65.1986 36.7186 63.8883 36.723 61.5041 36.7301L41.8477 36.7305L41.6903 36.7301C39.3097 36.7224 37.9987 36.7186 36.8511 37.3627C35.6081 38.0602 34.9081 39.393 33.982 41.3468L32.4478 44.5833H27.9677C25.3383 44.5833 23.1992 46.7343 23.1992 49.3783C23.1992 52.0004 25.3033 54.1365 27.9027 54.1716L26.5459 57.0338C25.7898 58.6246 25.7373 58.8441 25.7447 60.3905C25.7453 60.5263 25.7459 71.0502 25.7459 71.0502C25.7459 71.9358 25.7472 73.2996 27.0083 73.8026V77.0694C27.0083 78.6852 28.3228 79.9996 29.9384 79.9996H35.373C36.9862 79.9996 38.2987 78.6851 38.2987 77.0694V73.998H48.9661C49.6134 73.998 50.138 73.4733 50.138 72.8261C50.138 72.179 49.6134 71.6543 48.9661 71.6543H28.1802C28.1516 71.6543 28.1253 71.654 28.1013 71.6533C28.0897 71.4574 28.0889 60.5186 28.0883 60.3796C28.0831 59.2594 28.0831 59.2594 28.6633 58.0388L30.4956 54.1733H72.7028L74.5358 58.0401C75.1119 59.2519 75.1119 59.2519 75.1059 60.3593C75.1052 60.5038 75.1044 71.4574 75.0931 71.6536C75.0703 71.6543 54.2987 71.6546 54.2987 71.6546C53.6514 71.6546 53.1269 72.1793 53.1269 72.8265C53.1269 73.4736 53.6514 73.9983 54.2987 73.9983H64.8952V77.0696C64.8952 78.6854 66.2095 79.9997 67.8253 79.9997H73.2598C74.8756 79.9997 76.1902 78.6852 76.1902 77.0696V73.8018C77.4469 73.2982 77.4481 71.9354 77.4481 71.0504C77.4481 71.0504 77.4489 60.5122 77.4497 60.3713C77.4577 58.8518 77.398 58.6022 76.653 57.0351L75.2956 54.1718C77.8952 54.1365 79.9994 52.0004 79.9994 49.3783ZM25.543 49.3783C25.543 48.0268 26.6306 46.9271 27.9677 46.9271H31.3369L29.0131 51.8294H27.9678C26.6306 51.8294 25.543 50.7299 25.543 49.3783ZM35.9552 73.998V77.0693C35.9552 77.3872 35.6886 77.6557 35.3731 77.6557H29.9386C29.6206 77.6557 29.3522 77.3871 29.3522 77.0693V73.998H35.9552ZM36.0998 42.3507C36.922 40.6163 37.4158 39.7335 37.998 39.4068C38.608 39.0646 39.7642 39.0676 41.6831 39.074L61.3536 39.0744L61.5112 39.074C63.4316 39.0676 64.5897 39.0644 65.2003 39.4069C65.783 39.7336 66.2767 40.6165 67.0986 42.3507L71.5919 51.8296H31.6067L36.0998 42.3507ZM73.8466 77.0694C73.8466 77.3874 73.578 77.6558 73.26 77.6558H67.8255C67.5077 77.6558 67.2391 77.3872 67.2391 77.0694V73.998H73.8466V77.0694ZM75.2309 51.8294H74.1856L71.8617 46.9271H75.2309C76.568 46.9271 77.6556 48.0268 77.6556 49.3783C77.6556 50.7299 76.568 51.8294 75.2309 51.8294Z" fill="#807166"/>
<path d="M45.6582 62.4121H57.5416C58.189 62.4121 58.7135 61.8874 58.7135 61.2402C58.7135 60.593 58.189 60.0684 57.5416 60.0684H45.6582C45.0109 60.0684 44.4863 60.593 44.4863 61.2402C44.4863 61.8874 45.0109 62.4121 45.6582 62.4121Z" fill="#807166"/>
<path d="M45.6582 67.709H57.5416C58.189 67.709 58.7135 67.1843 58.7135 66.5371C58.7135 65.8899 58.189 65.3652 57.5416 65.3652H45.6582C45.0109 65.3652 44.4863 65.8899 44.4863 66.5371C44.4863 67.1843 45.0109 67.709 45.6582 67.709Z" fill="#807166"/>
<path d="M71.2699 62.7856C71.2699 60.0707 69.0634 57.8623 66.351 57.8623C63.6363 57.8623 61.4277 60.0709 61.4277 62.7856C61.4277 65.5003 63.6363 67.709 66.351 67.709C69.0634 67.7089 71.2699 65.5003 71.2699 62.7856ZM63.7715 62.7856C63.7715 61.3632 64.9287 60.2061 66.351 60.2061C67.771 60.2061 68.9262 61.3632 68.9262 62.7856C68.9262 64.2081 67.7709 65.3653 66.351 65.3653C64.9287 65.3651 63.7715 64.2079 63.7715 62.7856Z" fill="#807166"/>
<path d="M31.9297 62.7856C31.9297 65.5004 34.1364 67.709 36.8486 67.709C39.5634 67.709 41.7719 65.5004 41.7719 62.7856C41.7719 60.0707 39.5633 57.8623 36.8486 57.8623C34.1364 57.8621 31.9297 60.0707 31.9297 62.7856ZM39.4283 62.7856C39.4283 64.2081 38.2711 65.3653 36.8487 65.3653C35.4287 65.3653 34.2736 64.2081 34.2736 62.7856C34.2736 61.3632 35.4289 60.2061 36.8487 60.2061C38.2711 60.2059 39.4283 61.3632 39.4283 62.7856Z" fill="#807166"/>
<path d="M33.0163 7.10254H28.207C27.5694 7.10254 27.0352 7.6366 27.0352 8.27441V25.5464C27.0352 26.1936 27.5598 26.7183 28.207 26.7183C28.8542 26.7183 29.3789 26.1936 29.3789 25.5464V19.2096C30.5052 19.2033 32.1823 19.1947 33.0163 19.1947C36.4027 19.1947 39.1578 16.4825 39.1578 13.1486C39.1578 9.81473 36.4027 7.10254 33.0163 7.10254ZM33.0163 16.851C32.1873 16.851 30.5341 16.8594 29.4056 16.8657C29.3992 15.7088 29.3908 13.9941 29.3908 13.1486C29.3908 12.4371 29.3859 10.6485 29.3823 9.44629H33.0161C35.0747 9.44629 36.8139 11.1418 36.8139 13.1486C36.8139 15.1555 35.0747 16.851 33.0163 16.851Z" fill="#807166"/>
</g>
<defs>
<clipPath id="clip0_4085_483">
<rect width="80" height="80" fill="white"/>
</clipPath>
</defs>
</svg>
