<svg width="80" height="80" viewBox="0 0 80 80" fill="none" xmlns="http://www.w3.org/2000/svg">
<path d="M66.824 72.2547H64.3791V68.7211C64.3791 68.0738 63.8546 67.5492 63.2073 67.5492H61.382V20.4762C61.382 19.8289 60.8574 19.3044 60.2101 19.3044C59.5627 19.3044 59.0382 19.8289 59.0382 20.4762V67.5492H20.9635V7.74531H59.0382V15.3714C59.0382 16.0187 59.5627 16.5433 60.2101 16.5433C60.8574 16.5433 61.382 16.0187 61.382 15.3714V7.74531H63.2073C63.8546 7.74531 64.3791 7.22078 64.3791 6.57344V1.17188C64.3791 0.524531 63.8546 0 63.2073 0H16.7945C16.1473 0 15.6226 0.524531 15.6226 1.17188V6.57344C15.6226 7.22078 16.1473 7.74531 16.7945 7.74531H18.6198V67.5491H16.7945C16.1473 67.5491 15.6226 68.0736 15.6226 68.7209V72.2545H13.1777C12.5305 72.2545 12.0059 72.7791 12.0059 73.4264V78.828C12.0059 79.4753 12.5305 79.9998 13.1777 79.9998H18.3865C19.0337 79.9998 19.5584 79.4753 19.5584 78.828C19.5584 78.1806 19.0337 77.6561 18.3865 77.6561H14.3496V74.5983H16.7945H63.2073H65.6521V77.6562H23.5946C22.9474 77.6562 22.4227 78.1808 22.4227 78.8281C22.4227 79.4755 22.9474 80 23.5946 80H66.824C67.4713 80 67.9959 79.4755 67.9959 78.8281V73.4266C67.9959 72.7792 67.4713 72.2547 66.824 72.2547ZM17.9663 5.40156V2.34375H62.0354V5.40156H17.9663ZM62.0354 72.2547H17.9663V69.893H62.0354V72.2547Z" fill="#807166"/>
<path d="M55.7012 9.52539H24.3008C23.6536 9.52539 23.1289 10.0499 23.1289 10.6973V22.9759C23.1289 23.6232 23.6536 24.1477 24.3008 24.1477C24.948 24.1477 25.4727 23.6232 25.4727 22.9759V11.8691H54.5294V49.8829H41.8286V46.4918H51.5727C52.22 46.4918 52.7445 45.9673 52.7445 45.3199V41.5602C52.7445 40.9129 52.22 40.3884 51.5727 40.3884H41.8286V38.8282H47.0253C47.6727 38.8282 48.1972 38.3037 48.1972 37.6563V34.7121H48.9708C50.46 34.7121 51.6716 33.5005 51.6716 32.0113V23.4723C51.6716 21.9832 50.46 20.7716 48.9708 20.7716H48.1972V17.8274C48.1972 17.1801 47.6727 16.6555 47.0253 16.6555H32.9769C32.3297 16.6555 31.805 17.1801 31.805 17.8274V37.6563C31.805 38.3037 32.3297 38.8282 32.9769 38.8282H36.4595V40.3884H28.4295C27.7823 40.3884 27.2577 40.9129 27.2577 41.5602V45.3199C27.2577 45.9673 27.7823 46.4918 28.4295 46.4918H36.4595V63.6082H25.4728V27.7407C25.4727 27.0934 24.948 26.5688 24.3008 26.5688C23.6536 26.5688 23.1289 27.0934 23.1289 27.7407V64.7801C23.1289 65.4274 23.6536 65.952 24.3008 65.952H55.7012C56.3486 65.952 56.8731 65.4274 56.8731 64.7801V10.6973C56.8731 10.0499 56.3486 9.52539 55.7012 9.52539ZM48.197 23.1151H48.9706V23.1152C49.1675 23.1152 49.3277 23.2752 49.3277 23.4721V32.0112C49.3277 32.208 49.1675 32.3682 48.9706 32.3682H48.197V23.1151ZM34.1486 36.4845V18.9993H45.8533V36.4845H34.1486ZM39.4848 38.8282V40.3884H38.8031V38.8282H39.4848ZM29.6013 44.148V42.7321H50.4008V44.148H29.6013ZM54.5294 63.6082H38.8031V46.4918H39.4848V51.0548C39.4848 51.7021 40.0095 52.2266 40.6567 52.2266H54.5294V63.6082Z" fill="#807166"/>
<path d="M36.9688 25.1426H36.8262C36.179 25.1426 35.6543 25.6671 35.6543 26.3145C35.6543 26.9618 36.179 27.4863 36.8262 27.4863H36.9688C37.616 27.4863 38.1407 26.9618 38.1407 26.3145C38.1407 25.6671 37.616 25.1426 36.9688 25.1426Z" fill="#807166"/>
<path d="M36.9688 28.7773H36.8262C36.179 28.7773 35.6543 29.3019 35.6543 29.9492C35.6543 30.5966 36.179 31.1211 36.8262 31.1211H36.9688C37.616 31.1211 38.1407 30.5966 38.1407 29.9492C38.1407 29.3019 37.616 28.7773 36.9688 28.7773Z" fill="#807166"/>
<path d="M36.9688 32.4131H36.8262C36.179 32.4131 35.6543 32.9376 35.6543 33.585C35.6543 34.2323 36.179 34.7568 36.8262 34.7568H36.9688C37.616 34.7568 38.1407 34.2323 38.1407 33.585C38.1407 32.9376 37.616 32.4131 36.9688 32.4131Z" fill="#807166"/>
<path d="M40.0722 25.1426H39.9297C39.2825 25.1426 38.7578 25.6671 38.7578 26.3145C38.7578 26.9618 39.2825 27.4863 39.9297 27.4863H40.0722C40.7195 27.4863 41.2441 26.9618 41.2441 26.3145C41.2441 25.6671 40.7195 25.1426 40.0722 25.1426Z" fill="#807166"/>
<path d="M40.0722 28.7773H39.9297C39.2825 28.7773 38.7578 29.3019 38.7578 29.9492C38.7578 30.5966 39.2825 31.1211 39.9297 31.1211H40.0722C40.7195 31.1211 41.2441 30.5966 41.2441 29.9492C41.2441 29.3019 40.7195 28.7773 40.0722 28.7773Z" fill="#807166"/>
<path d="M40.0722 32.4131H39.9297C39.2825 32.4131 38.7578 32.9376 38.7578 33.585C38.7578 34.2323 39.2825 34.7568 39.9297 34.7568H40.0722C40.7195 34.7568 41.2441 34.2323 41.2441 33.585C41.2441 32.9376 40.7195 32.4131 40.0722 32.4131Z" fill="#807166"/>
<path d="M43.1739 25.1426H43.0312C42.3839 25.1426 41.8594 25.6671 41.8594 26.3145C41.8594 26.9618 42.3839 27.4863 43.0312 27.4863H43.1739C43.8212 27.4863 44.3458 26.9618 44.3458 26.3145C44.3458 25.6671 43.8212 25.1426 43.1739 25.1426Z" fill="#807166"/>
<path d="M43.1739 28.7773H43.0312C42.3839 28.7773 41.8594 29.3019 41.8594 29.9492C41.8594 30.5966 42.3839 31.1211 43.0312 31.1211H43.1739C43.8212 31.1211 44.3458 30.5966 44.3458 29.9492C44.3458 29.3019 43.8211 28.7773 43.1739 28.7773Z" fill="#807166"/>
<path d="M43.1739 32.4131H43.0312C42.3839 32.4131 41.8594 32.9376 41.8594 33.585C41.8594 34.2323 42.3839 34.7568 43.0312 34.7568H43.1739C43.8212 34.7568 44.3458 34.2323 44.3458 33.585C44.3458 32.9376 43.8211 32.4131 43.1739 32.4131Z" fill="#807166"/>
<path d="M42.0391 20.4453H36.4004C35.7532 20.4453 35.2285 20.9698 35.2285 21.6172C35.2285 22.2645 35.7532 22.7891 36.4004 22.7891H42.0391C42.6865 22.7891 43.211 22.2645 43.211 21.6172C43.211 20.9698 42.6865 20.4453 42.0391 20.4453Z" fill="#807166"/>
</svg>
