<svg width="80" height="80" viewBox="0 0 80 80" fill="none" xmlns="http://www.w3.org/2000/svg">
<g clip-path="url(#clip0_4085_574)">
<path d="M60.7517 0.108398H19.2467C18.5905 0.108398 18.0586 0.64043 18.0586 1.29652V24.2957C18.0586 24.9517 18.5905 25.4837 19.2467 25.4837C19.903 25.4837 20.4348 24.9517 20.4348 24.2956V2.48465H59.5636V24.2956C59.5636 24.9517 60.0955 25.4837 60.7517 25.4837C61.408 25.4837 61.9398 24.9517 61.9398 24.2956V1.29652C61.9398 0.64043 61.408 0.108398 60.7517 0.108398Z" fill="#807166"/>
<path d="M60.6362 53.177H62.2513C62.9076 53.177 63.4395 52.645 63.4395 51.9889C63.4395 51.3328 62.9076 50.8008 62.2513 50.8008H17.7487C17.0924 50.8008 16.5605 51.3328 16.5605 51.9889C16.5605 52.645 17.0924 53.177 17.7487 53.177H19.3638L17.3677 71.7917C17.2979 72.4442 17.7699 73.0297 18.4223 73.0997C19.0784 73.1703 19.6602 72.6973 19.7302 72.0452L21.7535 53.1772H58.2462L60.8562 77.5155H19.1437L19.3051 76.0111C19.3751 75.3587 18.903 74.7731 18.2505 74.7031C17.5999 74.6334 17.0126 75.1053 16.9426 75.7577L16.6402 78.5769C16.6041 78.912 16.7124 79.2469 16.9377 79.4978C17.1632 79.7486 17.4845 79.8917 17.8215 79.8917H62.1788C62.5159 79.8917 62.8373 79.7484 63.0626 79.4978C63.2879 79.247 63.396 78.9123 63.3601 78.5769L60.6362 53.177Z" fill="#807166"/>
<path d="M65.8217 26.8223H7.74C3.47219 26.8223 0 30.2946 0 34.5624V61.0463C0 65.3141 3.47219 68.7865 7.74 68.7865H15.0506C15.7069 68.7865 16.2388 68.2545 16.2388 67.5984C16.2388 66.9423 15.7069 66.4102 15.0508 66.4102H7.74C4.78234 66.4102 2.37625 64.004 2.37625 61.0463V34.5624C2.37625 31.6048 4.7825 29.1985 7.74 29.1985H65.8217C66.478 29.1985 67.0098 28.6665 67.0098 28.0104C67.0098 27.3543 66.4781 26.8223 65.8217 26.8223Z" fill="#807166"/>
<path d="M72.2585 26.8223H69.7826C69.1263 26.8223 68.5945 27.3543 68.5945 28.0104C68.5945 28.6665 69.1263 29.1985 69.7826 29.1985H72.2585C75.2171 29.1985 77.624 31.6048 77.624 34.5624V61.0463C77.624 64.004 75.217 66.4102 72.2585 66.4102H64.9479C64.2916 66.4102 63.7598 66.9423 63.7598 67.5984C63.7598 68.2545 64.2916 68.7865 64.9479 68.7865H72.2585C76.5273 68.7865 80.0002 65.3143 80.0002 61.0463V34.5624C80.0002 30.2946 76.5273 26.8223 72.2585 26.8223Z" fill="#807166"/>
<path d="M65.9805 45.1982H14.0202C13.3639 45.1982 12.832 45.7303 12.832 46.3864V59.0597C12.832 59.7157 13.3639 60.2478 14.0202 60.2478H15.9667C16.623 60.2478 17.1548 59.7157 17.1548 59.0597C17.1548 58.4036 16.623 57.8715 15.9667 57.8715H15.2083V47.5745H64.7925V57.8715H64.0341C63.3778 57.8715 62.8459 58.4036 62.8459 59.0597C62.8459 59.7157 63.3778 60.2478 64.0341 60.2478H65.9806C66.6369 60.2478 67.1688 59.7157 67.1688 59.0597V46.3864C67.1686 45.7301 66.6369 45.1982 65.9805 45.1982Z" fill="#807166"/>
<path d="M10.217 31.7334C7.29078 31.7334 4.91016 34.114 4.91016 37.0403C4.91016 39.9665 7.29078 42.3471 10.217 42.3471C13.1433 42.3471 15.5239 39.9665 15.5239 37.0403C15.5239 34.114 13.1433 31.7334 10.217 31.7334ZM10.217 39.9709C8.60109 39.9709 7.28641 38.6562 7.28641 37.0403C7.28641 35.4243 8.60109 34.1096 10.217 34.1096C11.833 34.1096 13.1477 35.4243 13.1477 37.0403C13.1477 38.6562 11.833 39.9709 10.217 39.9709Z" fill="#807166"/>
<path d="M22.5745 31.7334C19.6482 31.7334 17.2676 34.114 17.2676 37.0403C17.2676 39.9665 19.6482 42.3471 22.5745 42.3471C25.5007 42.3471 27.8813 39.9665 27.8813 37.0403C27.8815 34.114 25.5007 31.7334 22.5745 31.7334ZM22.5745 39.9709C20.9585 39.9709 19.6438 38.6562 19.6438 37.0403C19.6438 35.4243 20.9585 34.1096 22.5745 34.1096C24.1904 34.1096 25.5051 35.4243 25.5051 37.0403C25.5051 38.6562 24.1905 39.9709 22.5745 39.9709Z" fill="#807166"/>
<path d="M55.4443 70.5449H24.5534C23.8971 70.5449 23.3652 71.0769 23.3652 71.733C23.3652 72.3891 23.8971 72.9212 24.5534 72.9212H55.4445C56.1007 72.9212 56.6326 72.3891 56.6326 71.733C56.6326 71.0769 56.1007 70.5449 55.4443 70.5449Z" fill="#807166"/>
<path d="M54.692 65.1592H25.3053C24.6492 65.1592 24.1172 65.6912 24.1172 66.3473C24.1172 67.0034 24.6491 67.5354 25.3053 67.5354H54.6919C55.3481 67.5354 55.88 67.0034 55.88 66.3473C55.88 65.6912 55.3483 65.1592 54.692 65.1592Z" fill="#807166"/>
<path d="M54.0593 59.7725H25.9401C25.2838 59.7725 24.752 60.3045 24.752 60.9606C24.752 61.6167 25.2838 62.1487 25.9401 62.1487H54.0593C54.7155 62.1487 55.2474 61.6167 55.2474 60.9606C55.2474 60.3045 54.7157 59.7725 54.0593 59.7725Z" fill="#807166"/>
</g>
<defs>
<clipPath id="clip0_4085_574">
<rect width="80" height="80" fill="white"/>
</clipPath>
</defs>
</svg>
