<svg width="69" height="69" viewBox="0 0 69 69" fill="none" xmlns="http://www.w3.org/2000/svg">
<path d="M32.8867 66.0352H36.7383V59.5436C36.7383 56.6744 39.0725 54.3416 41.9403 54.3416C44.8081 54.3416 47.1422 56.6757 47.1422 59.5436V66.0352H50.9938V39.0659H32.8867V66.0352ZM42.1599 40.3489C45.6638 40.3489 48.5141 43.1992 48.5141 46.7031C48.5141 50.207 45.6638 53.0573 42.1599 53.0573C38.656 53.0573 35.8057 50.207 35.8057 46.7031C35.8057 43.1992 38.656 40.3489 42.1599 40.3489Z" fill="white"/>
<path d="M32.1953 33.4636H51.6919V34.6482H32.1953V33.4636Z" fill="white"/>
<path d="M23.0101 25.3291L26.2391 17.8105H22.9723C22.9723 17.8105 22.9696 17.8105 22.9683 17.8105C22.9683 17.8105 22.967 17.8105 22.9656 17.8105H3.38281L6.6118 25.3291H23.0114H23.0101Z" fill="white"/>
<path d="M15.1772 7.85009C15.1772 7.65063 15.0088 7.48218 14.8093 7.48218C14.6099 7.48218 14.4414 7.65063 14.4414 7.85009V9.13845H15.1772V7.85009Z" fill="white"/>
<path d="M53.0907 11.354L42.4577 6.62915L41.4375 7.30028L49.3968 13.1882L53.0907 11.354Z" fill="white"/>
<path d="M63.0967 8.1924L49.6781 14.8566C49.6781 14.8566 49.6767 14.8566 49.6754 14.8566L42.5597 18.3915C42.3401 18.5006 42.084 18.5033 41.8617 18.4009L35.4037 15.4239L34.3242 16.1341L40.2243 21.1501C40.4318 21.3267 40.5356 21.5948 40.5032 21.8644C40.4709 22.1339 40.3038 22.3697 40.0598 22.4897L39.0114 23.0112L39.4062 23.6002L52.5904 17.0681C52.7036 17.0115 52.8262 16.9845 52.9488 16.9845C53.0607 16.9845 53.1712 17.0074 53.2763 17.0532C53.496 17.1503 53.6604 17.3403 53.7264 17.5707L56.9379 28.8425L58.1818 28.2253L58.0268 14.9684C58.0228 14.6612 58.1939 14.3795 58.4661 14.2393L65.1101 10.8338C65.5656 10.6007 65.8877 10.226 65.9968 9.80689C66.0885 9.45381 66.0238 9.09937 65.8109 8.78268C65.2826 7.9943 64.0387 7.72477 63.0967 8.1924Z" fill="white"/>
<path d="M42.1616 47.5115C42.6077 47.5115 42.9702 47.149 42.9702 46.7029V43.4551C42.9702 43.009 42.6077 42.6465 42.1616 42.6465C41.7155 42.6465 41.353 43.009 41.353 43.4551V45.8943H39.2695C38.8235 45.8943 38.4609 46.2569 38.4609 46.7029C38.4609 47.149 38.8235 47.5115 39.2695 47.5115H42.1616Z" fill="#807166"/>
<path d="M56.0625 51.3053H62.2927C62.7388 51.3053 63.1013 50.9428 63.1013 50.4967V46.5952C63.1013 46.1491 62.7388 45.7866 62.2927 45.7866H56.0625C55.6164 45.7866 55.2539 46.1491 55.2539 46.5952V50.4967C55.2539 50.9428 55.6164 51.3053 56.0625 51.3053ZM56.8711 47.4038H61.4841V49.6881H56.8711V47.4038Z" fill="#807166"/>
<path d="M42.1628 53.0585C45.6667 53.0585 48.517 50.2082 48.517 46.7043C48.517 43.2004 45.6667 40.3501 42.1628 40.3501C38.6589 40.3501 35.8086 43.2004 35.8086 46.7043C35.8086 50.2082 38.6589 53.0585 42.1628 53.0585ZM42.1628 41.9673C44.7746 41.9673 46.8998 44.0925 46.8998 46.7043C46.8998 49.3161 44.7746 51.4413 42.1628 51.4413C39.551 51.4413 37.4258 49.3161 37.4258 46.7043C37.4258 44.0925 39.551 41.9673 42.1628 41.9673Z" fill="#807166"/>
<path d="M56.0625 64.5138H62.2927C62.7388 64.5138 63.1013 64.1512 63.1013 63.7052V59.8037C63.1013 59.3576 62.7388 58.9951 62.2927 58.9951H56.0625C55.6164 58.9951 55.2539 59.3576 55.2539 59.8037V63.7052C55.2539 64.1512 55.6164 64.5138 56.0625 64.5138ZM56.8711 60.6123H61.4841V62.8966H56.8711V60.6123Z" fill="#807166"/>
<path d="M21.5938 51.3053H27.824C28.27 51.3053 28.6326 50.9428 28.6326 50.4967V46.5952C28.6326 46.1491 28.27 45.7866 27.824 45.7866H21.5938C21.1477 45.7866 20.7852 46.1491 20.7852 46.5952V50.4967C20.7852 50.9428 21.1477 51.3053 21.5938 51.3053ZM22.4023 47.4038H27.0154V49.6881H22.4023V47.4038Z" fill="#807166"/>
<path d="M62.376 6.74363L54.9733 10.42L42.7137 4.97146C42.4616 4.85961 42.1706 4.88387 41.9414 5.0348L39.5844 6.58461C39.3634 6.73016 39.2273 6.97408 39.2205 7.23822C39.2138 7.50236 39.3351 7.75303 39.548 7.9107L47.7741 13.9967L42.1854 16.7729L35.6722 13.769C35.4188 13.6517 35.1223 13.6746 34.8892 13.8269L32.5321 15.3767C32.3192 15.5169 32.1844 15.7487 32.1696 16.002C32.1534 16.2567 32.2585 16.5034 32.4526 16.6678L38.2394 21.5881L37.4645 21.9735C37.2556 22.0773 37.102 22.2659 37.0427 22.4896C36.9834 22.7147 37.0225 22.9546 37.1532 23.1473L38.4564 25.0893C38.6828 25.4262 39.1235 25.5434 39.4874 25.3629L52.437 18.948L55.6485 30.2198C55.7145 30.4503 55.8789 30.6403 56.0999 30.7373C56.2037 30.7831 56.3155 30.806 56.4274 30.806C56.5514 30.806 56.674 30.7777 56.7872 30.7211L59.3559 29.4449C59.6335 29.3061 59.8087 29.0217 59.8046 28.7118L59.6496 15.4468L65.8489 12.269C66.7141 11.8256 67.3394 11.0737 67.5631 10.2071C67.7706 9.40525 67.6251 8.57779 67.1547 7.87701C66.1804 6.42559 64.0376 5.91617 62.3787 6.73959L62.376 6.74363ZM41.4401 7.29887L42.4603 6.62773L53.0933 11.3526L49.4007 13.1868L41.4415 7.29752L41.4401 7.29887ZM65.9944 9.80551C65.8866 10.2246 65.5632 10.5993 65.1077 10.8324L58.4637 14.238C58.1901 14.3781 58.0203 14.6598 58.0244 14.967L58.1794 28.2239L56.9355 28.8412L53.724 17.5694C53.658 17.3389 53.4936 17.1489 53.2739 17.0519C53.1701 17.006 53.0583 16.9831 52.9464 16.9831C52.8238 16.9831 52.6998 17.0114 52.5879 17.0667L39.4038 23.5988L39.0089 23.0098L40.0574 22.4883C40.3014 22.367 40.4671 22.1325 40.5008 21.863C40.5345 21.5935 40.4294 21.3253 40.2218 21.1487L34.3218 16.1328L35.4013 15.4225L41.8592 18.3995C42.0816 18.5019 42.3377 18.4979 42.5573 18.3901L49.673 14.8552C49.673 14.8552 49.6743 14.8552 49.6756 14.8552L63.0943 8.19102C64.0363 7.72338 65.2802 7.99291 65.8084 8.78129C66.0214 9.09799 66.0847 9.45242 65.9944 9.80551Z" fill="#807166"/>
<path d="M21.5938 57.9088H27.824C28.27 57.9088 28.6326 57.5463 28.6326 57.1002V53.1987C28.6326 52.7527 28.27 52.3901 27.824 52.3901H21.5938C21.1477 52.3901 20.7852 52.7527 20.7852 53.1987V57.1002C20.7852 57.5463 21.1477 57.9088 21.5938 57.9088ZM22.4023 54.0073H27.0154V56.2916H22.4023V54.0073Z" fill="#807166"/>
<path d="M21.5938 64.5138H27.824C28.27 64.5138 28.6326 64.1512 28.6326 63.7052V59.8037C28.6326 59.3576 28.27 58.9951 27.824 58.9951H21.5938C21.1477 58.9951 20.7852 59.3576 20.7852 59.8037V63.7052C20.7852 64.1512 21.1477 64.5138 21.5938 64.5138ZM22.4023 60.6123H27.0154V62.8966H22.4023V60.6123Z" fill="#807166"/>
<path d="M56.0625 57.9088H62.2927C62.7388 57.9088 63.1013 57.5463 63.1013 57.1002V53.1987C63.1013 52.7527 62.7388 52.3901 62.2927 52.3901H56.0625C55.6164 52.3901 55.2539 52.7527 55.2539 53.1987V57.1002C55.2539 57.5463 55.6164 57.9088 56.0625 57.9088ZM56.8711 54.0073H61.4841V56.2916H56.8711V54.0073Z" fill="#807166"/>
<path d="M5.33666 26.4572C5.46469 26.7537 5.75578 26.9464 6.07922 26.9464H10.4025V65.771C10.4025 66.8087 11.2461 67.6523 12.2838 67.6523H65.6995C66.7723 67.6523 67.6442 66.7791 67.6442 65.7077V44.5926C67.6442 43.5199 66.7709 42.6479 65.6995 42.6479H52.6138V39.0672H54.2364C54.8846 39.0672 55.4115 38.5403 55.4115 37.8921V35.8234C55.4115 35.1752 54.8846 34.6482 54.2364 34.6482H53.3078V33.0216C53.3078 32.3734 52.7809 31.8465 52.1327 31.8465H31.7521C31.1038 31.8465 30.5769 32.3734 30.5769 33.0216V34.6482H29.6484C29.0002 34.6482 28.4732 35.1752 28.4732 35.8234V37.8921C28.4732 38.5403 29.0002 39.0672 29.6484 39.0672H31.271V42.6479H19.2202V26.9477H23.5435C23.8669 26.9477 24.1594 26.755 24.2861 26.4585L28.2091 17.3228C28.3169 17.0735 28.2913 16.7864 28.1417 16.5587C27.9921 16.3309 27.7388 16.1948 27.4665 16.1948H24.1243L26.2981 10.2247C26.3884 9.9767 26.352 9.70043 26.2011 9.4848C26.0501 9.26918 25.8022 9.1398 25.538 9.1398H16.7971V7.85145C16.7971 7.04555 16.3133 6.35016 15.6206 6.0402V2.15625C15.6206 1.71018 15.2581 1.34766 14.812 1.34766C14.366 1.34766 14.0034 1.71018 14.0034 2.15625V6.03885C13.3107 6.34881 12.8269 7.0442 12.8269 7.8501V9.13846H4.08469C3.82055 9.13846 3.57393 9.26783 3.42164 9.48346C3.2707 9.69908 3.23432 9.97535 3.32461 10.2233L5.49838 16.1934H2.15619C1.88397 16.1934 1.63061 16.3296 1.48102 16.5573C1.33143 16.7837 1.30582 17.0708 1.41363 17.3214L5.33666 26.4572ZM45.5278 66.0352H38.3569V59.5435C38.3569 57.5665 39.9647 55.9587 41.9417 55.9587C43.9187 55.9587 45.5265 57.5665 45.5265 59.5435V66.0352H45.5278ZM50.9966 66.0352H47.145V59.5435C47.145 56.6743 44.8109 54.3415 41.9431 54.3415C39.0752 54.3415 36.7411 56.6757 36.7411 59.5435V66.0352H32.8895V39.0659H50.9966V66.0352ZM65.6995 44.2638C65.8774 44.2638 66.027 44.4147 66.027 44.5913V65.7063C66.027 65.8842 65.8774 66.0338 65.6995 66.0338H52.6138V44.2624H65.6995V44.2638ZM32.1954 33.4637H51.692V34.6482H32.1954V33.4637ZM30.0918 37.4487V36.2641H53.7943V37.4487H30.0918ZM17.6044 42.7355C16.816 42.9835 16.2419 43.722 16.2419 44.5913V65.7063C16.2419 65.8182 16.254 65.9273 16.2715 66.0338H12.2838C12.141 66.0338 12.0197 65.9125 12.0197 65.7697V26.9464H17.6044V42.7355ZM31.2723 44.2638V66.0352H18.1866C18.0087 66.0352 17.8591 65.8842 17.8591 65.7077V44.5926C17.8591 44.4147 18.0087 44.2651 18.1866 44.2651H31.2723V44.2638ZM14.4441 7.8501C14.4441 7.65064 14.6126 7.48219 14.812 7.48219C15.0115 7.48219 15.1799 7.65064 15.1799 7.8501V9.13846H14.4441V7.8501ZM5.23963 10.7556H24.3844L22.4047 16.1934H7.21934L5.23963 10.7556ZM22.968 17.8106H22.9707H22.9748H26.2415L23.0125 25.3292H6.61289L3.38391 17.8106H22.968Z" fill="#807166"/>
</svg>
