<svg width="67" height="67" viewBox="0 0 67 67" fill="none" xmlns="http://www.w3.org/2000/svg">
<path d="M33.6211 50.431H36.6241C36.867 50.4309 37.0999 50.3343 37.2717 50.1626C37.4434 49.9908 37.54 49.7579 37.5401 49.515V47.5396C37.5389 46.5663 37.1517 45.6333 36.4636 44.9451C35.7755 44.2568 34.8425 43.8695 33.8692 43.8682H30.8652C30.6223 43.8682 30.3893 43.9647 30.2175 44.1365C30.0457 44.3082 29.9492 44.5412 29.9492 44.7842V46.7591C29.9503 47.7326 30.3375 48.6659 31.0259 49.3543C31.7143 50.0427 32.6476 50.4299 33.6211 50.431ZM31.7812 45.7002H33.8692C34.357 45.7006 34.8247 45.8945 35.1696 46.2394C35.5145 46.5842 35.7086 47.0518 35.7091 47.5396V48.599H33.6211C33.1333 48.5984 32.6657 48.4044 32.3208 48.0595C31.9758 47.7146 31.7818 47.2469 31.7812 46.7591V45.7002Z" fill="#807166"/>
<path d="M48.4941 50.431H51.4966C52.4702 50.4301 53.4036 50.0429 54.0921 49.3545C54.7806 48.6661 55.1679 47.7327 55.169 46.7591V44.7842C55.169 44.5412 55.0725 44.3082 54.9007 44.1365C54.7289 43.9647 54.4959 43.8682 54.253 43.8682H51.2495C50.2762 43.8694 49.3431 44.2566 48.6548 44.9449C47.9666 45.6331 47.5794 46.5662 47.5781 47.5396V49.5171C47.5787 49.7597 47.6754 49.9921 47.8472 50.1635C48.0189 50.3348 48.2516 50.431 48.4941 50.431ZM49.4102 47.5396C49.4106 47.0519 49.6045 46.5842 49.9494 46.2394C50.2942 45.8945 50.7618 45.7006 51.2495 45.7002H53.337V46.7591C53.3364 47.247 53.1423 47.7147 52.7973 48.0597C52.4523 48.4046 51.9845 48.5986 51.4966 48.599H49.4102V47.5396Z" fill="#807166"/>
<path d="M39.5645 45.7002H45.5531C45.796 45.7002 46.029 45.6037 46.2008 45.4319C46.3726 45.2601 46.4691 45.0271 46.4691 44.7842C46.4691 44.5412 46.3726 44.3082 46.2008 44.1365C46.029 43.9647 45.796 43.8682 45.5531 43.8682H39.5645C39.3215 43.8682 39.0885 43.9647 38.9167 44.1365C38.7449 44.3082 38.6484 44.5412 38.6484 44.7842C38.6484 45.0271 38.7449 45.2601 38.9167 45.4319C39.0885 45.6037 39.3215 45.7002 39.5645 45.7002Z" fill="#807166"/>
<path d="M39.5645 48.0657H45.5531C45.796 48.0657 46.029 47.9692 46.2008 47.7974C46.3726 47.6256 46.4691 47.3926 46.4691 47.1497C46.4691 46.9067 46.3726 46.6737 46.2008 46.5019C46.029 46.3301 45.796 46.2336 45.5531 46.2336H39.5645C39.3215 46.2336 39.0885 46.3301 38.9167 46.5019C38.7449 46.6737 38.6484 46.9067 38.6484 47.1497C38.6484 47.3926 38.7449 47.6256 38.9167 47.7974C39.0885 47.9692 39.3215 48.0657 39.5645 48.0657Z" fill="#807166"/>
<path d="M39.5645 50.4312H45.5531C45.796 50.4312 46.029 50.3346 46.2008 50.1629C46.3726 49.9911 46.4691 49.7581 46.4691 49.5151C46.4691 49.2722 46.3726 49.0392 46.2008 48.8674C46.029 48.6956 45.796 48.5991 45.5531 48.5991H39.5645C39.3215 48.5991 39.0885 48.6956 38.9167 48.8674C38.7449 49.0392 38.6484 49.2722 38.6484 49.5151C38.6484 49.7581 38.7449 49.9911 38.9167 50.1629C39.0885 50.3346 39.3215 50.4312 39.5645 50.4312Z" fill="#807166"/>
<path d="M2.0957 61.205H64.7695C65.0124 61.205 65.2454 61.1085 65.4172 60.9367C65.589 60.7649 65.6855 60.5319 65.6855 60.289C65.6855 60.046 65.589 59.813 65.4172 59.6412C65.2454 59.4694 65.0124 59.3729 64.7695 59.3729H55.0571C55.2092 59.0097 55.2875 58.6199 55.2874 58.2261V55.589C56.228 55.5034 57.1027 55.0694 57.7398 54.3721C58.3769 53.6749 58.7304 52.7647 58.7311 51.8203V25.3427L62.246 26.5681V27.5678H61.4158C61.1729 27.5678 60.9399 27.6643 60.7681 27.8361C60.5963 28.0079 60.4998 28.2409 60.4998 28.4838V34.3024C60.4998 34.5453 60.5963 34.7783 60.7681 34.9501C60.9399 35.1219 61.1729 35.2184 61.4158 35.2184H64.9082C65.1511 35.2184 65.3841 35.1219 65.5559 34.9501C65.7277 34.7783 65.8242 34.5453 65.8242 34.3024V28.4838C65.8242 28.2409 65.7277 28.0079 65.5559 27.8361C65.3841 27.6643 65.1511 27.5678 64.9082 27.5678H64.078V25.9174C64.0781 25.7273 64.019 25.5418 63.9088 25.3868C63.7987 25.2317 63.6431 25.1148 63.4635 25.0522L58.7316 23.4028V21.0296C58.7307 20.0264 58.3318 19.0646 57.6225 18.3552C56.9132 17.6458 55.9514 17.2467 54.9482 17.2456H30.1692C29.1656 17.2462 28.2033 17.645 27.4935 18.3544C26.7836 19.0639 26.3843 20.026 26.3832 21.0296V23.4028L21.6508 25.0522C21.4713 25.1148 21.3157 25.2318 21.2056 25.3868C21.0955 25.5418 21.0363 25.7273 21.0363 25.9174V27.5678H20.2066C20.0863 27.5678 19.9672 27.5914 19.856 27.6374C19.7448 27.6834 19.6438 27.7509 19.5588 27.836C19.4737 27.921 19.4062 28.0221 19.3602 28.1332C19.3142 28.2444 19.2906 28.3635 19.2906 28.4838V34.3024C19.2906 34.4227 19.3142 34.5418 19.3602 34.653C19.4062 34.7642 19.4737 34.8652 19.5588 34.9502C19.6438 35.0353 19.7448 35.1028 19.856 35.1488C19.9672 35.1948 20.0863 35.2185 20.2066 35.2184H23.6985C23.8188 35.2185 23.938 35.1948 24.0491 35.1488C24.1603 35.1028 24.2613 35.0353 24.3464 34.9502C24.4314 34.8652 24.4989 34.7642 24.5449 34.653C24.5909 34.5418 24.6146 34.4227 24.6145 34.3024V28.4838C24.6146 28.3635 24.5909 28.2444 24.5449 28.1332C24.4989 28.0221 24.4314 27.921 24.3464 27.836C24.2613 27.7509 24.1603 27.6834 24.0491 27.6374C23.938 27.5914 23.8188 27.5678 23.6985 27.5678H22.8704V26.5681L26.3832 25.3427V51.8229C26.3839 52.7674 26.7375 53.6776 27.3748 54.3749C28.012 55.0722 28.8867 55.5061 29.8274 55.5916V58.2282C29.8274 58.622 29.9057 59.0118 30.0577 59.375H18.9038V51.3141H20.2066C20.4496 51.3141 20.6826 51.2176 20.8544 51.0458C21.0261 50.874 21.1227 50.641 21.1227 50.3981V49.7302C21.1215 48.822 20.7603 47.9514 20.1182 47.3093C19.476 46.6671 18.6054 46.3059 17.6973 46.3048H9.35631V13.4523H46.4419C46.6848 13.4522 46.9177 13.3556 47.0894 13.1838C47.2612 13.0121 47.3577 12.7792 47.3579 12.5363V9.79398C47.3566 8.73375 46.9349 7.7173 46.1852 6.9676C45.4355 6.2179 44.419 5.79617 43.3588 5.79492H2.0957C1.85276 5.79492 1.61977 5.89143 1.44798 6.06322C1.2762 6.235 1.17969 6.468 1.17969 6.71094V9.45532C1.18096 10.3154 1.45905 11.1522 1.97281 11.842C2.48658 12.5317 3.20873 13.0378 4.03242 13.2853V54.2234H2.0957C1.8528 54.2235 1.61989 54.3201 1.44814 54.4918C1.27638 54.6636 1.17983 54.8965 1.17969 55.1394V60.289C1.17969 60.5319 1.2762 60.7649 1.44798 60.9367C1.61977 61.1085 1.85276 61.205 2.0957 61.205ZM63.9922 33.3864H62.3318V29.3999H63.9922V33.3864ZM22.7846 33.3864H21.1248V29.3999H22.7846V33.3864ZM37.658 55.6068H47.4589V58.224C47.4586 58.6178 47.5369 59.0077 47.6892 59.3708H37.4277C37.5801 59.0077 37.6584 58.6178 37.658 58.224V55.6068ZM50.4378 59.3756C50.1337 59.3753 49.8421 59.2544 49.6271 59.0393C49.4121 58.8243 49.2912 58.5328 49.2909 58.2287V55.6115H53.4554V58.2287C53.455 58.5328 53.3339 58.8244 53.1188 59.0394C52.9037 59.2544 52.6121 59.3753 52.308 59.3756H50.4378ZM52.81 35.3759C52.6382 35.2043 52.4053 35.1079 52.1625 35.1079C51.9197 35.1079 51.6868 35.2043 51.515 35.3759L47.9232 38.9646H43.474V24.9679H56.8996V36.7128C56.8986 37.3095 56.6612 37.8814 56.2393 38.3033C55.8174 38.7252 55.2455 38.9626 54.6488 38.9636H50.5137L52.81 36.6678C52.9816 36.4961 53.078 36.2633 53.078 36.0206C53.078 35.7778 52.9816 35.545 52.81 35.3733V35.3759ZM35.1654 38.9646L37.4618 36.6688C37.5493 36.5844 37.6191 36.4833 37.6671 36.3715C37.7151 36.2598 37.7404 36.1396 37.7415 36.018C37.7426 35.8963 37.7194 35.7757 37.6734 35.6631C37.6274 35.5506 37.5594 35.4483 37.4734 35.3622C37.3874 35.2762 37.2851 35.2082 37.1726 35.1621C37.06 35.116 36.9394 35.0928 36.8177 35.0938C36.6961 35.0949 36.5759 35.1201 36.4641 35.1681C36.3524 35.2161 36.2513 35.2859 36.1668 35.3733L32.5749 38.9646H30.4702C29.8736 38.9637 29.3016 38.7262 28.8797 38.3043C28.4578 37.8824 28.2204 37.3105 28.2194 36.7139V24.9679H41.6425V38.9646H35.1654ZM28.2152 21.0296C28.2158 20.5121 28.4216 20.0159 28.7875 19.65C29.1535 19.284 29.6496 19.0782 30.1671 19.0777H54.9456C55.463 19.0784 55.959 19.2843 56.3249 19.6502C56.6907 20.0161 56.8964 20.5122 56.897 21.0296V23.1359H28.2152V21.0296ZM28.2152 51.8229V40.1162C28.8819 40.5601 29.6651 40.7968 30.466 40.7967H54.6488C55.4498 40.7968 56.2329 40.5601 56.8996 40.1162V51.8229C56.8992 52.3403 56.6935 52.8365 56.3276 53.2024C55.9618 53.5684 55.4657 53.7742 54.9482 53.7748H30.1692C29.6514 53.7748 29.1547 53.5692 28.7883 53.2032C28.4219 52.8372 28.2158 52.3407 28.2152 51.8229ZM31.6595 58.2261V55.6089H35.826V58.2261C35.8256 58.5301 35.7046 58.8216 35.4897 59.0366C35.2747 59.2516 34.9832 59.3725 34.6792 59.3729H32.8084C32.5044 59.3725 32.2129 59.2516 31.9979 59.0366C31.7829 58.8216 31.662 58.5301 31.6615 58.2261H31.6595ZM17.0697 59.3729H16.0485V51.312H17.0718L17.0697 59.3729ZM9.35683 48.1368H17.6994C18.0775 48.138 18.4429 48.2734 18.7305 48.519C19.0181 48.7645 19.2092 49.1041 19.2697 49.4774H9.35683V48.1368ZM5.86445 13.4523H7.52323V54.2192H5.86445V13.4523ZM3.01172 9.45532V7.62695H43.3588C43.9334 7.62751 44.4842 7.856 44.8905 8.26227C45.2968 8.66855 45.5253 9.21942 45.5258 9.79398V11.6203H5.17875C4.60455 11.6197 4.054 11.3915 3.64778 10.9857C3.24156 10.5799 3.01283 10.0295 3.01172 9.45532ZM9.35631 51.3094H14.2164V59.3729H12.2122V55.1394C12.212 54.8965 12.1155 54.6636 11.9437 54.4918C11.772 54.3201 11.5391 54.2235 11.2962 54.2234H9.35631V51.3094ZM3.01172 56.0554H10.3801V59.3729H3.01172V56.0554Z" fill="#807166"/>
</svg>
