<svg width="78" height="78" viewBox="0 0 78 78" fill="none" xmlns="http://www.w3.org/2000/svg">
<path d="M38.3601 23.4942V33.9306H31.4727V23.4942C31.4727 23.0262 31.8549 22.644 32.3229 22.644H37.5099C37.9779 22.644 38.3601 23.0262 38.3601 23.4942Z" fill="white"/>
<path d="M36.6363 23.4942V27.051C36.6363 28.9542 35.8641 30.6702 34.6239 31.9182C33.7659 32.7762 32.6817 33.408 31.4727 33.7122V23.4942C31.4727 23.0262 31.8549 22.644 32.3229 22.644H35.7939C36.2619 22.644 36.6363 23.0262 36.6363 23.4942Z" fill="white"/>
<path d="M41.2148 38.6497H53.804V61.3321H41.2148V38.6497Z" fill="white"/>
<path d="M51.4406 38.6497V48.7351C51.4406 54.8815 47.0414 59.9983 41.2148 61.1059V38.6497H51.4406Z" fill="white"/>
<path d="M28.6165 38.6497V61.3321H16.0273V39.4921C16.0273 39.0241 16.4095 38.6497 16.8775 38.6497H28.6165Z" fill="white"/>
<path d="M26.2921 38.6497V48.7351C26.2921 54.8971 21.8695 60.0295 16.0273 61.1137V39.4921C16.0273 39.0241 16.4095 38.6497 16.8775 38.6497H26.2921Z" fill="white"/>
<path d="M41.2142 29.0011V61.3321H28.6172V29.0011C28.6172 28.5331 28.9994 28.1587 29.4674 28.1587H40.364C40.832 28.1587 41.2142 28.5331 41.2142 29.0011Z" fill="white"/>
<path d="M39.0692 29.0011V48.7351C39.0692 54.9595 34.553 60.1309 28.6172 61.1449V29.0011C28.6172 28.5331 28.9994 28.1587 29.4674 28.1587H38.219C38.687 28.1587 39.0692 28.5331 39.0692 29.0011Z" fill="white"/>
<path d="M53.8047 28.1587H66.4017V61.3321H53.8047V28.1587Z" fill="white"/>
<path d="M64.3737 28.1587V48.7351C64.3737 54.9985 59.7951 60.2011 53.8047 61.1683V28.1587H64.3737Z" fill="white"/>
<path d="M70.9963 30.0852C70.9963 31.2552 70.6999 32.3706 70.1617 33.3846C68.5159 36.4734 64.6393 38.6496 60.1075 38.6496C59.4913 38.6496 58.8829 38.6106 58.2901 38.5248C54.5539 38.0412 51.4651 36.0522 50.0533 33.3846C49.5073 32.3706 49.2109 31.2552 49.2109 30.0852C49.2109 28.9152 49.5151 27.7998 50.0533 26.778C51.4807 24.1182 54.5617 22.137 58.2901 21.6456C58.8829 21.5598 59.4835 21.5208 60.1075 21.5208C64.6315 21.5208 68.5081 23.697 70.1539 26.778C70.6999 27.7998 70.9963 28.9152 70.9963 30.0852Z" fill="white"/>
<path d="M67.3615 30.0854C67.3615 31.2554 67.0651 32.3708 66.5191 33.3848C65.1073 36.0524 62.0185 38.0336 58.2901 38.525C54.5539 38.0414 51.4651 36.0524 50.0533 33.3848C49.5073 32.3708 49.2109 31.2554 49.2109 30.0854C49.2109 28.9154 49.5151 27.8 50.0533 26.7782C51.4807 24.1184 54.5617 22.1372 58.2901 21.6458C62.0185 22.1372 65.0995 24.1184 66.5191 26.7782C67.0651 27.8 67.3615 28.9154 67.3615 30.0854Z" fill="white"/>
<path d="M70.9963 30.0853C70.9963 31.2553 70.6999 32.3707 70.1617 33.3847H50.0533C49.5073 32.3707 49.2109 31.2553 49.2109 30.0853C49.2109 28.9153 49.5151 27.7999 50.0533 26.7781H70.1539C70.6999 27.7999 70.9963 28.9153 70.9963 30.0853Z" fill="white"/>
<path d="M67.0651 30.0853V30.1243C67.0495 31.9495 65.4817 33.3847 63.6565 33.3847H50.0533C49.5073 32.3707 49.2109 31.2553 49.2109 30.0853C49.2109 28.9153 49.5151 27.7999 50.0533 26.7781H66.2149C66.7687 27.7999 67.0651 28.9153 67.0651 30.0853Z" fill="white"/>
<path d="M46.4487 69.249C46.4487 70.6842 45.2865 71.8542 43.8513 71.8542C43.5315 71.8542 43.2195 71.7918 42.9387 71.6826C41.9481 71.316 41.2539 70.3644 41.2539 69.249C41.2539 68.1336 41.9481 67.1898 42.9387 66.8232C43.2195 66.7062 43.5315 66.6516 43.8513 66.6516C45.2865 66.6516 46.4487 67.8138 46.4487 69.249Z" fill="white"/>
<path d="M44.6157 69.249C44.6157 70.3566 43.9215 71.316 42.9387 71.6826C41.9481 71.316 41.2539 70.3644 41.2539 69.249C41.2539 68.1336 41.9481 67.1898 42.9387 66.8232C43.9215 67.1898 44.6157 68.1414 44.6157 69.249Z" fill="white"/>
<path d="M67.8667 73.1389C67.8667 74.5741 66.7045 75.7441 65.2693 75.7441C64.9495 75.7441 64.6375 75.6817 64.3567 75.5725C63.3661 75.2059 62.6719 74.2543 62.6719 73.1389C62.6719 72.0235 63.3661 71.0797 64.3567 70.7131C64.6375 70.5961 64.9495 70.5415 65.2693 70.5415C66.7045 70.5415 67.8667 71.7037 67.8667 73.1389Z" fill="white"/>
<path d="M66.0337 73.1389C66.0337 74.2465 65.3395 75.2059 64.3567 75.5725C63.3661 75.2059 62.6719 74.2543 62.6719 73.1389C62.6719 72.0235 63.3661 71.0797 64.3567 70.7131C65.3395 71.0797 66.0337 72.0313 66.0337 73.1389Z" fill="white"/>
<path d="M37.9107 9.24298C37.9107 11.0409 36.4544 12.5073 34.6565 12.5073C34.2556 12.5073 33.8648 12.4293 33.513 12.292C32.272 11.8326 31.4023 10.6407 31.4023 9.24298C31.4023 7.84522 32.272 6.66274 33.513 6.20332C33.8648 6.05668 34.2556 5.98804 34.6565 5.98804C36.4544 5.98882 37.9107 7.44508 37.9107 9.24298Z" fill="white"/>
<path d="M35.6104 9.24278C35.6104 10.6304 34.7407 11.8324 33.5091 12.2918C32.2681 11.8324 31.3984 10.6405 31.3984 9.24278C31.3984 7.84503 32.2681 6.66254 33.5091 6.20312C34.7407 6.66254 35.6104 7.85517 35.6104 9.24278Z" fill="white"/>
<path d="M34.7339 74.4805C34.7339 75.9157 33.5717 77.0857 32.1365 77.0857C31.8167 77.0857 31.5047 77.0233 31.2239 76.9141C30.2333 76.5475 29.5391 75.5959 29.5391 74.4805C29.5391 73.3651 30.2333 72.4213 31.2239 72.0547C31.5047 71.9377 31.8167 71.8831 32.1365 71.8831C33.5717 71.8831 34.7339 73.0453 34.7339 74.4805Z" fill="white"/>
<path d="M32.9009 74.4805C32.9009 75.5881 32.2067 76.5475 31.2239 76.9141C30.2333 76.5475 29.5391 75.5959 29.5391 74.4805C29.5391 73.3651 30.2333 72.4213 31.2239 72.0547C32.2067 72.4213 32.9009 73.3729 32.9009 74.4805Z" fill="white"/>
<path d="M12.0659 69.3389C12.0659 70.7741 10.9037 71.9441 9.46849 71.9441C9.14869 71.9441 8.83669 71.8817 8.55589 71.7725C7.56529 71.4059 6.87109 70.4543 6.87109 69.3389C6.87109 68.2235 7.56529 67.2797 8.55589 66.9131C8.83669 66.7961 9.14869 66.7415 9.46849 66.7415C10.9037 66.7415 12.0659 67.9037 12.0659 69.3389Z" fill="white"/>
<path d="M10.2329 69.3389C10.2329 70.4465 9.53869 71.4059 8.55589 71.7725C7.56529 71.4059 6.87109 70.4543 6.87109 69.3389C6.87109 68.2235 7.56529 67.2797 8.55589 66.9131C9.53869 67.2797 10.2329 68.2313 10.2329 69.3389Z" fill="white"/>
<path d="M32.2553 27.771V23.4958C32.2553 23.4583 32.2857 23.4279 32.3232 23.4279H37.5125C37.55 23.4279 37.5804 23.4583 37.5804 23.4958V27.771H39.1404V23.4958C39.1404 22.598 38.4095 21.8679 37.5125 21.8679H32.3232C31.4262 21.8679 30.6953 22.598 30.6953 23.4958V27.771H32.2553Z" fill="#807166"/>
<path d="M53.8059 62.1089H41.2136C40.7823 62.1089 40.4336 61.7594 40.4336 61.3289V38.6465C40.4336 38.2159 40.7823 37.8665 41.2136 37.8665H53.8067C54.238 37.8665 54.5867 38.2159 54.5867 38.6465V61.3289C54.5859 61.7594 54.2373 62.1089 53.8059 62.1089ZM41.9936 60.5489H53.0267V39.4265H41.9936V60.5489Z" fill="#807166"/>
<path d="M28.6192 62.112H16.03C15.5987 62.112 15.25 61.7626 15.25 61.332V52.0968C15.25 51.6663 15.5987 51.3168 16.03 51.3168C16.4613 51.3168 16.81 51.6663 16.81 52.0968V60.552H27.8392V39.4296H16.8802C16.8404 39.4296 16.81 39.4569 16.81 39.492V43.8678C16.81 44.2984 16.4613 44.6478 16.03 44.6478C15.5987 44.6478 15.25 44.2984 15.25 43.8678V39.492C15.25 38.5974 15.9816 37.8696 16.8802 37.8696H28.6192C29.0505 37.8696 29.3992 38.2191 29.3992 38.6496V61.332C29.3992 61.7634 29.0498 62.112 28.6192 62.112Z" fill="#807166"/>
<path d="M41.2129 62.109H28.6198C28.1885 62.109 27.8398 61.7596 27.8398 61.329V29.0043C27.8398 28.1073 28.5699 27.3772 29.4669 27.3772H40.3651C41.2621 27.3772 41.9929 28.1073 41.9929 29.0043V61.329C41.9929 61.7596 41.6443 62.109 41.2129 62.109ZM29.3998 60.549H40.4329V29.0043C40.4329 28.9668 40.4025 28.9372 40.3651 28.9372H29.4669C29.4295 28.9372 29.3998 28.9676 29.3998 29.0043V60.549Z" fill="#807166"/>
<path d="M66.3997 55.7862C65.9683 55.7862 65.6197 56.1356 65.6197 56.5662V60.552H54.5834V37.2502H53.0234V61.3327C53.0234 61.7633 53.3721 62.1127 53.8034 62.1127H66.3997C66.831 62.1127 67.1797 61.7633 67.1797 61.3327V56.5669C67.1797 56.1356 66.831 55.7862 66.3997 55.7862Z" fill="#807166"/>
<path d="M65.6211 37.2502V48.3379C65.6211 48.7685 65.9698 49.1179 66.4011 49.1179C66.8324 49.1179 67.1811 48.7685 67.1811 48.3379V37.2502H65.6211Z" fill="#807166"/>
<path d="M66.4017 52.1984H60.3099C59.416 52.1984 58.6875 51.4668 58.6875 50.5682V44.7728C58.6875 43.8781 59.416 43.1504 60.3099 43.1504H66.4017C66.833 43.1504 67.1817 43.4998 67.1817 43.9304V48.3374C67.1817 48.768 66.833 49.1174 66.4017 49.1174C65.9704 49.1174 65.6217 48.768 65.6217 48.3374V44.7104H60.3099C60.2725 44.7104 60.2475 44.7354 60.2475 44.7728V50.5682C60.2475 50.6072 60.2748 50.6384 60.3099 50.6384H66.4017C66.833 50.6384 67.1817 50.9878 67.1817 51.4184C67.1817 51.8489 66.833 52.1984 66.4017 52.1984Z" fill="#807166"/>
<path d="M45.3191 47.1081C44.8877 47.1081 44.5391 46.7587 44.5391 46.3281V44.3469C44.5391 43.9163 44.8877 43.5669 45.3191 43.5669C45.7504 43.5669 46.0991 43.9163 46.0991 44.3469V46.3281C46.0991 46.7587 45.7496 47.1081 45.3191 47.1081Z" fill="#807166"/>
<path d="M45.3191 52.4846C44.8877 52.4846 44.5391 52.1351 44.5391 51.7046V49.7234C44.5391 49.2928 44.8877 48.9434 45.3191 48.9434C45.7504 48.9434 46.0991 49.2928 46.0991 49.7234V51.7046C46.0991 52.1351 45.7496 52.4846 45.3191 52.4846Z" fill="#807166"/>
<path d="M45.3191 57.861C44.8877 57.861 44.5391 57.5116 44.5391 57.081V55.0998C44.5391 54.6693 44.8877 54.3198 45.3191 54.3198C45.7504 54.3198 46.0991 54.6693 46.0991 55.0998V57.081C46.0991 57.5116 45.7496 57.861 45.3191 57.861Z" fill="#807166"/>
<path d="M49.7019 47.1081C49.2705 47.1081 48.9219 46.7587 48.9219 46.3281V44.3469C48.9219 43.9163 49.2705 43.5669 49.7019 43.5669C50.1332 43.5669 50.4819 43.9163 50.4819 44.3469V46.3281C50.4819 46.7587 50.1324 47.1081 49.7019 47.1081Z" fill="#807166"/>
<path d="M49.7019 52.4846C49.2705 52.4846 48.9219 52.1351 48.9219 51.7046V49.7234C48.9219 49.2928 49.2705 48.9434 49.7019 48.9434C50.1332 48.9434 50.4819 49.2928 50.4819 49.7234V51.7046C50.4819 52.1351 50.1324 52.4846 49.7019 52.4846Z" fill="#807166"/>
<path d="M49.7019 57.861C49.2705 57.861 48.9219 57.5116 48.9219 57.081V55.0998C48.9219 54.6693 49.2705 54.3198 49.7019 54.3198C50.1332 54.3198 50.4819 54.6693 50.4819 55.0998V57.081C50.4819 57.5116 50.1324 57.861 49.7019 57.861Z" fill="#807166"/>
<path d="M32.6628 56.8869C32.2315 56.8869 31.8828 56.5374 31.8828 56.1069V33.3777C31.8828 32.9471 32.2315 32.5977 32.6628 32.5977C33.0942 32.5977 33.4428 32.9471 33.4428 33.3777V56.1069C33.4428 56.5374 33.0942 56.8869 32.6628 56.8869Z" fill="#807166"/>
<path d="M37.1706 56.8869C36.7393 56.8869 36.3906 56.5374 36.3906 56.1069V33.3777C36.3906 32.9471 36.7393 32.5977 37.1706 32.5977C37.602 32.5977 37.9506 32.9471 37.9506 33.3777V56.1069C37.9506 56.5374 37.602 56.8869 37.1706 56.8869Z" fill="#807166"/>
<path d="M25.3928 44.4108H19.2605C18.8291 44.4108 18.4805 44.0614 18.4805 43.6308C18.4805 43.2003 18.8291 42.8508 19.2605 42.8508H25.3928C25.8242 42.8508 26.1728 43.2003 26.1728 43.6308C26.1728 44.0614 25.8242 44.4108 25.3928 44.4108Z" fill="#807166"/>
<path d="M25.3928 47.8232H19.2605C18.8291 47.8232 18.4805 47.4737 18.4805 47.0432C18.4805 46.6126 18.8291 46.2632 19.2605 46.2632H25.3928C25.8242 46.2632 26.1728 46.6126 26.1728 47.0432C26.1728 47.4737 25.8242 47.8232 25.3928 47.8232Z" fill="#807166"/>
<path d="M25.3928 51.2365H19.2605C18.8291 51.2365 18.4805 50.8871 18.4805 50.4565C18.4805 50.026 18.8291 49.6765 19.2605 49.6765H25.3928C25.8242 49.6765 26.1728 50.026 26.1728 50.4565C26.1728 50.8871 25.8242 51.2365 25.3928 51.2365Z" fill="#807166"/>
<path d="M25.3928 54.6498H19.2605C18.8291 54.6498 18.4805 54.3004 18.4805 53.8698C18.4805 53.4393 18.8291 53.0898 19.2605 53.0898H25.3928C25.8242 53.0898 26.1728 53.4393 26.1728 53.8698C26.1728 54.3004 25.8242 54.6498 25.3928 54.6498Z" fill="#807166"/>
<path d="M25.3928 58.0632H19.2605C18.8291 58.0632 18.4805 57.7137 18.4805 57.2832C18.4805 56.8526 18.8291 56.5032 19.2605 56.5032H25.3928C25.8242 56.5032 26.1728 56.8526 26.1728 57.2832C26.1728 57.7137 25.8242 58.0632 25.3928 58.0632Z" fill="#807166"/>
<path d="M60.1069 39.0364C55.5517 39.0364 51.4692 36.8891 49.7056 33.5655C49.1183 32.472 48.8203 31.3012 48.8203 30.0875C48.8203 28.8801 49.1206 27.7054 49.7119 26.5962C51.4832 23.2773 55.5642 21.1323 60.1069 21.1323C64.652 21.1323 68.7306 23.2773 70.495 26.5962C71.0862 27.6921 71.3865 28.8676 71.3865 30.0875C71.3865 31.3012 71.0885 32.472 70.5004 33.5671C68.7376 36.8891 64.6574 39.0364 60.1069 39.0364ZM60.1069 21.9123C55.8481 21.9123 52.0378 23.8951 50.4006 26.9636C49.8694 27.9581 49.6011 29.0095 49.6011 30.0875C49.6011 31.1709 49.8679 32.2177 50.3944 33.1981C52.0261 36.2713 55.838 38.2564 60.1077 38.2564C64.3735 38.2564 68.183 36.2713 69.8132 33.1997C70.3405 32.2177 70.6073 31.1709 70.6073 30.0875C70.6073 28.9986 70.3382 27.948 69.8086 26.9652C68.1745 23.8951 64.3681 21.9123 60.1069 21.9123Z" fill="#807166"/>
<path d="M60.1055 39.4266C55.4083 39.4266 51.1901 37.1981 49.3594 33.7481C48.7432 32.5992 48.4297 31.366 48.4297 30.0876C48.4297 28.8154 48.7448 27.5791 49.3665 26.413C51.2049 22.9686 55.4208 20.7424 60.1063 20.7424C64.7941 20.7424 69.0069 22.9686 70.8391 26.4138C71.46 27.5659 71.7759 28.803 71.7759 30.0876C71.7759 31.3668 71.4623 32.5992 70.8438 33.7513C69.0139 37.1981 64.798 39.4266 60.1055 39.4266ZM60.1055 22.3024C55.9887 22.3024 52.3141 24.2041 50.7424 27.147C50.2424 28.0846 49.9889 29.0744 49.9889 30.0876C49.9889 31.1063 50.2401 32.0907 50.7354 33.0142C52.3008 35.9634 55.9785 37.8666 60.1055 37.8666C64.2286 37.8666 67.9032 35.9634 69.4663 33.0173C69.9639 32.0907 70.2151 31.1063 70.2151 30.0876C70.2151 29.0643 69.9624 28.0752 69.4632 27.1501C67.8961 24.2041 64.2239 22.3024 60.1055 22.3024Z" fill="#807166"/>
<path d="M60.1042 22.3025C59.6729 22.3025 59.3242 21.9531 59.3242 21.5225V16.0095C59.3242 15.5789 59.6729 15.2295 60.1042 15.2295C60.5356 15.2295 60.8842 15.5789 60.8842 16.0095V21.5225C60.8842 21.9539 60.5348 22.3025 60.1042 22.3025Z" fill="#807166"/>
<path d="M70.1558 34.1631H50.049C49.7619 34.1631 49.4975 34.0048 49.3618 33.7521C48.7432 32.6 48.4297 31.3668 48.4297 30.0884C48.4297 28.8162 48.7448 27.5799 49.3665 26.4138C49.5022 26.1596 49.7674 26.0012 50.0552 26.0012H70.1503C70.4366 26.0012 70.701 26.1588 70.8367 26.4107C71.46 27.5659 71.7759 28.8038 71.7759 30.0884C71.7759 31.3676 71.4623 32.6 70.8438 33.7521C70.7073 34.0048 70.4436 34.1631 70.1558 34.1631ZM50.5333 32.6031H69.6714C70.0326 31.8005 70.2151 30.9566 70.2151 30.0876C70.2151 29.2133 70.031 28.3654 69.666 27.5597H50.5404C50.1745 28.3732 49.9897 29.2218 49.9897 30.0876C49.9897 30.9566 50.1722 31.8005 50.5333 32.6031Z" fill="#807166"/>
<path d="M70.9976 62.1088H12.2605C11.8291 62.1088 11.4805 61.7594 11.4805 61.3288C11.4805 60.8983 11.8291 60.5488 12.2605 60.5488H70.9976C71.4289 60.5488 71.7776 60.8983 71.7776 61.3288C71.7776 61.7594 71.4281 62.1088 70.9976 62.1088Z" fill="#807166"/>
<path d="M21.543 34.9994C21.543 34.5626 21.894 34.2194 22.323 34.2194C22.752 34.2194 23.103 34.5626 23.103 34.9994C23.103 35.4284 22.752 35.7794 22.323 35.7794C21.894 35.7794 21.543 35.4284 21.543 34.9994ZM21.543 31.0994C21.543 30.6704 21.894 30.3194 22.323 30.3194C22.752 30.3194 23.103 30.6704 23.103 31.0994C23.103 31.5284 22.752 31.8794 22.323 31.8794C21.894 31.8794 21.543 31.5284 21.543 31.0994ZM21.543 27.1994C21.543 26.7626 21.894 26.4194 22.323 26.4194C22.752 26.4194 23.103 26.7626 23.103 27.1994C23.103 27.6284 22.752 27.9794 22.323 27.9794C21.894 27.9794 21.543 27.6284 21.543 27.1994ZM21.543 23.2994C21.543 22.8626 21.894 22.5194 22.323 22.5194C22.752 22.5194 23.103 22.8626 23.103 23.2994C23.103 23.7284 22.752 24.0794 22.323 24.0794C21.894 24.0794 21.543 23.7284 21.543 23.2994ZM21.543 19.3994C21.543 18.9626 21.894 18.6194 22.323 18.6194C22.752 18.6194 23.103 18.9626 23.103 19.3994C23.103 19.8284 22.752 20.1794 22.323 20.1794C21.894 20.1794 21.543 19.8284 21.543 19.3994Z" fill="#807166"/>
<path d="M34.1406 19.5943C34.1406 19.1653 34.4908 18.8143 34.9206 18.8143C35.3496 18.8143 35.7006 19.1653 35.7006 19.5943C35.7006 20.0233 35.3496 20.3743 34.9206 20.3743C34.4908 20.3743 34.1406 20.0233 34.1406 19.5943ZM34.1406 15.6943C34.1406 15.2653 34.4908 14.9143 34.9206 14.9143C35.3496 14.9143 35.7006 15.2653 35.7006 15.6943C35.7006 16.1233 35.3496 16.4743 34.9206 16.4743C34.4908 16.4743 34.1406 16.1233 34.1406 15.6943Z" fill="#807166"/>
<path d="M59.3281 10.9285C59.3281 10.4917 59.6783 10.1485 60.1081 10.1485C60.5371 10.1485 60.8795 10.4917 60.8795 10.9285H60.8881C60.8881 11.3575 60.5371 11.7085 60.1081 11.7085C59.6705 11.7085 59.3281 11.3575 59.3281 10.9285ZM59.3281 7.02854C59.3281 6.59954 59.6783 6.24854 60.1081 6.24854C60.5371 6.24854 60.8795 6.59954 60.8795 7.02854H60.8881C60.8881 7.45754 60.5371 7.80854 60.1081 7.80854C59.6705 7.80854 59.3281 7.45754 59.3281 7.02854Z" fill="#807166"/>
<path d="M26.5581 15.0875C26.3585 15.0875 26.158 15.011 26.0059 14.8589C25.0231 13.8746 23.7158 13.3325 22.3251 13.3325C20.9351 13.3325 19.6278 13.8746 18.645 14.8589C18.3401 15.1647 17.8463 15.1639 17.5413 14.8597C17.2364 14.5555 17.2364 14.0618 17.5406 13.7568C18.819 12.4768 20.5178 11.7725 22.3251 11.7725C24.1323 11.7725 25.832 12.4768 27.1104 13.7568C27.4146 14.0618 27.4146 14.5555 27.1096 14.8597C26.9575 15.011 26.7578 15.0875 26.5581 15.0875Z" fill="#807166"/>
<path d="M19.9052 16.9032C19.7055 16.9032 19.5058 16.8267 19.3537 16.6754C19.0488 16.3704 19.0488 15.8775 19.3537 15.5717C20.147 14.7777 21.2023 14.3401 22.3248 14.3401C23.4464 14.3401 24.5017 14.7777 25.295 15.5725C25.6 15.8775 25.6 16.3712 25.295 16.6754C24.99 16.9796 24.4971 16.9804 24.1921 16.6746C23.6929 16.1754 23.0307 15.9009 22.3248 15.9001C21.6204 15.9001 20.9559 16.1754 20.4567 16.6746C20.3038 16.8275 20.1041 16.9032 19.9052 16.9032Z" fill="#807166"/>
<path d="M64.3347 3.70489C64.135 3.70489 63.9346 3.62845 63.7825 3.47635C62.8004 2.49199 61.4932 1.94989 60.1024 1.94989C58.7125 1.94989 57.4052 2.49199 56.4224 3.47635C56.1174 3.78211 55.6237 3.78133 55.3187 3.47713C55.0137 3.17293 55.0137 2.67919 55.3179 2.37421C56.5963 1.09423 58.2952 0.389893 60.1024 0.389893C61.9097 0.389893 63.6093 1.09423 64.8877 2.37421C65.1919 2.67919 65.1919 3.17293 64.8869 3.47713C64.7341 3.62923 64.5344 3.70489 64.3347 3.70489Z" fill="#807166"/>
<path d="M57.6825 5.52158C57.4829 5.52158 57.2832 5.44514 57.1311 5.29382C56.8261 4.98884 56.8261 4.49588 57.1311 4.19012C57.9243 3.39608 58.9797 2.9585 60.1021 2.9585C61.2237 2.9585 62.2791 3.39608 63.0723 4.1909C63.3773 4.49588 63.3773 4.98962 63.0723 5.29382C62.7674 5.59802 62.2744 5.5988 61.9694 5.29304C61.4702 4.79384 60.808 4.51928 60.1021 4.5185C59.3978 4.5185 58.7332 4.79384 58.234 5.29304C58.0819 5.44514 57.8822 5.52158 57.6825 5.52158Z" fill="#807166"/>
<path d="M34.9197 12.7663C32.834 12.7663 31.1367 11.0729 31.1367 8.99028C31.1367 6.90456 32.834 5.20728 34.9197 5.20728C37.0015 5.20728 38.6957 6.90456 38.6957 8.99028C38.6949 11.0729 37.0015 12.7663 34.9197 12.7663ZM34.9197 6.76727C33.6943 6.76727 32.6967 7.76412 32.6967 8.99028C32.6967 10.2118 33.6936 11.2063 34.9197 11.2063C36.1412 11.2063 37.1357 10.2125 37.1357 8.99028C37.1349 7.7649 36.1412 6.76727 34.9197 6.76727Z" fill="#807166"/>
<path d="M23.2606 60.5488C22.8293 60.5488 22.4806 60.8983 22.4806 61.3288V68.0228C22.4806 68.2708 22.2794 68.4721 22.0321 68.4721H11.832V70.0321H22.0321C23.1397 70.0321 24.0406 69.1304 24.0406 68.0228V61.3288C24.0406 60.8983 23.6919 60.5488 23.2606 60.5488Z" fill="#807166"/>
<path d="M63.1026 72.3472H59.2705V69.9229C59.2705 69.1226 58.6192 68.4713 57.8197 68.4713H53.6186V61.3281C53.6186 60.8975 53.2699 60.5481 52.8386 60.5481C52.4073 60.5481 52.0586 60.8975 52.0586 61.3281V68.5798C52.0586 69.38 52.7099 70.0313 53.5094 70.0313H57.7097V72.4556C57.7097 73.2559 58.361 73.9072 59.1613 73.9072H63.1018L63.1026 72.3472Z" fill="#807166"/>
<path d="M33.4428 71.7683V61.3288C33.4428 60.8983 33.0942 60.5488 32.6628 60.5488C32.2315 60.5488 31.8828 60.8983 31.8828 61.3288V71.7691L33.4428 71.7683Z" fill="#807166"/>
<path d="M44.7709 66.7608V61.3288C44.7709 60.8983 44.4223 60.5488 43.9909 60.5488C43.5596 60.5488 43.2109 60.8983 43.2109 61.3288V66.7608H44.7709Z" fill="#807166"/>
<path d="M9.60474 72.6335C7.7421 72.6335 6.22656 71.1164 6.22656 69.2522C6.22656 67.3872 7.7421 65.8708 9.60474 65.8708C11.4674 65.8708 12.9829 67.388 12.9829 69.2522C12.9837 71.1164 11.4674 72.6335 9.60474 72.6335ZM9.60474 67.4301C8.60244 67.4301 7.78656 68.2475 7.78656 69.2514C7.78656 70.2552 8.60244 71.0727 9.60474 71.0727C10.607 71.0727 11.4229 70.256 11.4229 69.2514C11.4229 68.2467 10.6078 67.4301 9.60474 67.4301Z" fill="#807166"/>
<path d="M32.5188 77.6098C30.6562 77.6098 29.1406 76.0927 29.1406 74.2285C29.1406 72.3643 30.6562 70.8472 32.5188 70.8472C34.3814 70.8472 35.897 72.3643 35.897 74.2285C35.897 76.0927 34.3814 77.6098 32.5188 77.6098ZM32.5188 72.4072C31.5165 72.4072 30.7006 73.2238 30.7006 74.2285C30.7006 75.2331 31.5165 76.0498 32.5188 76.0498C33.5211 76.0498 34.337 75.2323 34.337 74.2285C34.337 73.2246 33.5219 72.4072 32.5188 72.4072Z" fill="#807166"/>
<path d="M43.8508 72.6335C41.9882 72.6335 40.4727 71.1164 40.4727 69.2522C40.4727 67.3872 41.9882 65.8708 43.8508 65.8708C45.7135 65.8708 47.229 67.388 47.229 69.2522C47.229 71.1164 45.7127 72.6335 43.8508 72.6335ZM43.8508 67.4301C42.8485 67.4301 42.0327 68.2475 42.0327 69.2514C42.0327 70.2552 42.8485 71.0727 43.8508 71.0727C44.8531 71.0727 45.669 70.256 45.669 69.2514C45.669 68.2467 44.8531 67.4301 43.8508 67.4301Z" fill="#807166"/>
<path d="M65.4407 76.2768C63.578 76.2768 62.0625 74.7597 62.0625 72.8955C62.0625 71.0313 63.578 69.5142 65.4407 69.5142C67.3033 69.5142 68.8189 71.0313 68.8189 72.8955C68.8196 74.7597 67.3033 76.2768 65.4407 76.2768ZM65.4407 71.0742C64.4384 71.0742 63.6225 71.8908 63.6225 72.8955C63.6225 73.9001 64.4384 74.7168 65.4407 74.7168C66.443 74.7168 67.2589 73.8993 67.2589 72.8955C67.2589 71.8916 66.4438 71.0742 65.4407 71.0742Z" fill="#807166"/>
</svg>
