<svg width="57" height="57" viewBox="0 0 57 57" fill="none" xmlns="http://www.w3.org/2000/svg">
<g clip-path="url(#clip0_2632_1683)">
<path d="M14.68 22.4691H18.9982C19.2273 22.4691 19.4469 22.3782 19.6089 22.2162C19.7709 22.0542 19.8619 21.8346 19.8619 21.6055V16.4237C19.8619 16.1946 19.7709 15.975 19.6089 15.813C19.4469 15.651 19.2273 15.5601 18.9982 15.5601H14.68C14.451 15.5601 14.2313 15.651 14.0694 15.813C13.9074 15.975 13.8164 16.1946 13.8164 16.4237V21.6055C13.8164 21.8346 13.9074 22.0542 14.0694 22.2162C14.2313 22.3782 14.451 22.4691 14.68 22.4691ZM15.5437 17.2873H18.1346V20.7419H15.5437V17.2873Z" fill="#807166"/>
<path d="M22.4535 22.4691H26.7717C27.0007 22.4691 27.2204 22.3782 27.3823 22.2162C27.5443 22.0542 27.6353 21.8346 27.6353 21.6055V16.4237C27.6353 16.1946 27.5443 15.975 27.3823 15.813C27.2204 15.651 27.0007 15.5601 26.7717 15.5601H22.4535C22.2244 15.5601 22.0048 15.651 21.8428 15.813C21.6808 15.975 21.5898 16.1946 21.5898 16.4237V21.6055C21.5898 21.8346 21.6808 22.0542 21.8428 22.2162C22.0048 22.3782 22.2244 22.4691 22.4535 22.4691ZM23.3171 17.2873H25.908V20.7419H23.3171V17.2873Z" fill="#807166"/>
<path d="M30.2269 22.4691H34.5451C34.7741 22.4691 34.9938 22.3782 35.1558 22.2162C35.3177 22.0542 35.4087 21.8346 35.4087 21.6055V16.4237C35.4087 16.1946 35.3177 15.975 35.1558 15.813C34.9938 15.651 34.7741 15.5601 34.5451 15.5601H30.2269C29.9979 15.5601 29.7782 15.651 29.6162 15.813C29.4543 15.975 29.3633 16.1946 29.3633 16.4237V21.6055C29.3633 21.8346 29.4543 22.0542 29.6162 22.2162C29.7782 22.3782 29.9979 22.4691 30.2269 22.4691ZM31.0906 17.2873H33.6815V20.7419H31.0906V17.2873Z" fill="#807166"/>
<path d="M38.0004 22.4691H42.3185C42.5476 22.4691 42.7673 22.3782 42.9292 22.2162C43.0912 22.0542 43.1822 21.8346 43.1822 21.6055V16.4237C43.1822 16.1946 43.0912 15.975 42.9292 15.813C42.7673 15.651 42.5476 15.5601 42.3185 15.5601H38.0004C37.7713 15.5601 37.5516 15.651 37.3897 15.813C37.2277 15.975 37.1367 16.1946 37.1367 16.4237V21.6055C37.1367 21.8346 37.2277 22.0542 37.3897 22.2162C37.5516 22.3782 37.7713 22.4691 38.0004 22.4691ZM38.864 17.2873H41.4549V20.7419H38.864V17.2873Z" fill="#807166"/>
<path d="M14.68 31.1046H18.9982C19.2273 31.1046 19.4469 31.0137 19.6089 30.8517C19.7709 30.6897 19.8619 30.4701 19.8619 30.241V25.0592C19.8619 24.8301 19.7709 24.6105 19.6089 24.4485C19.4469 24.2865 19.2273 24.1956 18.9982 24.1956H14.68C14.451 24.1956 14.2313 24.2865 14.0694 24.4485C13.9074 24.6105 13.8164 24.8301 13.8164 25.0592V30.241C13.8164 30.4701 13.9074 30.6897 14.0694 30.8517C14.2313 31.0137 14.451 31.1046 14.68 31.1046ZM15.5437 25.9228H18.1346V29.3774H15.5437V25.9228Z" fill="#807166"/>
<path d="M22.4535 31.1046H26.7717C27.0007 31.1046 27.2204 31.0137 27.3823 30.8517C27.5443 30.6897 27.6353 30.4701 27.6353 30.241V25.0592C27.6353 24.8301 27.5443 24.6105 27.3823 24.4485C27.2204 24.2865 27.0007 24.1956 26.7717 24.1956H22.4535C22.2244 24.1956 22.0048 24.2865 21.8428 24.4485C21.6808 24.6105 21.5898 24.8301 21.5898 25.0592V30.241C21.5898 30.4701 21.6808 30.6897 21.8428 30.8517C22.0048 31.0137 22.2244 31.1046 22.4535 31.1046ZM23.3171 25.9228H25.908V29.3774H23.3171V25.9228Z" fill="#807166"/>
<path d="M30.2269 31.1046H34.5451C34.7741 31.1046 34.9938 31.0137 35.1558 30.8517C35.3177 30.6897 35.4087 30.4701 35.4087 30.241V25.0592C35.4087 24.8301 35.3177 24.6105 35.1558 24.4485C34.9938 24.2865 34.7741 24.1956 34.5451 24.1956H30.2269C29.9979 24.1956 29.7782 24.2865 29.6162 24.4485C29.4543 24.6105 29.3633 24.8301 29.3633 25.0592V30.241C29.3633 30.4701 29.4543 30.6897 29.6162 30.8517C29.7782 31.0137 29.9979 31.1046 30.2269 31.1046ZM31.0906 25.9228H33.6815V29.3774H31.0906V25.9228Z" fill="#807166"/>
<path d="M38.0004 31.1046H42.3185C42.5476 31.1046 42.7673 31.0137 42.9292 30.8517C43.0912 30.6897 43.1822 30.4701 43.1822 30.241V25.0592C43.1822 24.8301 43.0912 24.6105 42.9292 24.4485C42.7673 24.2865 42.5476 24.1956 42.3185 24.1956H38.0004C37.7713 24.1956 37.5516 24.2865 37.3897 24.4485C37.2277 24.6105 37.1367 24.8301 37.1367 25.0592V30.241C37.1367 30.4701 37.2277 30.6897 37.3897 30.8517C37.5516 31.0137 37.7713 31.1046 38.0004 31.1046ZM38.864 25.9228H41.4549V29.3774H38.864V25.9228Z" fill="#807166"/>
<path d="M19.8619 38.8775V33.6957C19.8619 33.4666 19.7709 33.247 19.6089 33.085C19.4469 32.923 19.2273 32.832 18.9982 32.832H14.68C14.451 32.832 14.2313 32.923 14.0694 33.085C13.9074 33.247 13.8164 33.4666 13.8164 33.6957V38.8775C13.8164 39.1065 13.9074 39.3262 14.0694 39.4882C14.2313 39.6501 14.451 39.7411 14.68 39.7411H18.9982C19.2273 39.7411 19.4469 39.6501 19.6089 39.4882C19.7709 39.3262 19.8619 39.1065 19.8619 38.8775ZM18.1346 38.0138H15.5437V34.5593H18.1346V38.0138Z" fill="#807166"/>
<path d="M22.4535 39.7411H26.7717C27.0007 39.7411 27.2204 39.6501 27.3823 39.4882C27.5443 39.3262 27.6353 39.1065 27.6353 38.8775V33.6957C27.6353 33.4666 27.5443 33.247 27.3823 33.085C27.2204 32.923 27.0007 32.832 26.7717 32.832H22.4535C22.2244 32.832 22.0048 32.923 21.8428 33.085C21.6808 33.247 21.5898 33.4666 21.5898 33.6957V38.8775C21.5898 39.1065 21.6808 39.3262 21.8428 39.4882C22.0048 39.6501 22.2244 39.7411 22.4535 39.7411ZM23.3171 34.5593H25.908V38.0138H23.3171V34.5593Z" fill="#807166"/>
<path d="M30.2269 39.7411H34.5451C34.7741 39.7411 34.9938 39.6501 35.1558 39.4882C35.3177 39.3262 35.4087 39.1065 35.4087 38.8775V33.6957C35.4087 33.4666 35.3177 33.247 35.1558 33.085C34.9938 32.923 34.7741 32.832 34.5451 32.832H30.2269C29.9979 32.832 29.7782 32.923 29.6162 33.085C29.4543 33.247 29.3633 33.4666 29.3633 33.6957V38.8775C29.3633 39.1065 29.4543 39.3262 29.6162 39.4882C29.7782 39.6501 29.9979 39.7411 30.2269 39.7411ZM31.0906 34.5593H33.6815V38.0138H31.0906V34.5593Z" fill="#807166"/>
<path d="M38.0004 39.7411H42.3185C42.5476 39.7411 42.7673 39.6501 42.9292 39.4882C43.0912 39.3262 43.1822 39.1065 43.1822 38.8775V33.6957C43.1822 33.4666 43.0912 33.247 42.9292 33.085C42.7673 32.923 42.5476 32.832 42.3185 32.832H38.0004C37.7713 32.832 37.5516 32.923 37.3897 33.085C37.2277 33.247 37.1367 33.4666 37.1367 33.6957V38.8775C37.1367 39.1065 37.2277 39.3262 37.3897 39.4882C37.5516 39.6501 37.7713 39.7411 38.0004 39.7411ZM38.864 34.5593H41.4549V38.0138H38.864V34.5593Z" fill="#807166"/>
<path d="M25.9105 50.9684C26.1396 50.9684 26.3592 50.8774 26.5212 50.7154C26.6832 50.5534 26.7741 50.3338 26.7741 50.1047V49.2411C26.7741 49.012 26.6832 48.7924 26.5212 48.6304C26.3592 48.4684 26.1396 48.3774 25.9105 48.3774C25.6815 48.3774 25.4618 48.4684 25.2998 48.6304C25.1379 48.7924 25.0469 49.012 25.0469 49.2411V50.1047C25.0469 50.3338 25.1379 50.5534 25.2998 50.7154C25.4618 50.8774 25.6815 50.9684 25.9105 50.9684Z" fill="#807166"/>
<path d="M31.0902 50.9684C31.3192 50.9684 31.5389 50.8774 31.7009 50.7154C31.8628 50.5534 31.9538 50.3338 31.9538 50.1047V49.2411C31.9538 49.012 31.8628 48.7924 31.7009 48.6304C31.5389 48.4684 31.3192 48.3774 31.0902 48.3774C30.8611 48.3774 30.6415 48.4684 30.4795 48.6304C30.3176 48.7924 30.2266 49.012 30.2266 49.2411V50.1047C30.2266 50.3338 30.3176 50.5534 30.4795 50.7154C30.6415 50.8774 30.8611 50.9684 31.0902 50.9684Z" fill="#807166"/>
<path d="M13.8168 10.38C14.0458 10.38 14.2655 10.289 14.4274 10.1271C14.5894 9.96512 14.6804 9.74545 14.6804 9.5164V7.78913H16.4077V9.5164C16.4077 9.74545 16.4987 9.96512 16.6606 10.1271C16.8226 10.289 17.0423 10.38 17.2713 10.38C17.5004 10.38 17.72 10.289 17.882 10.1271C18.044 9.96512 18.1349 9.74545 18.1349 9.5164V4.33458C18.1349 4.10553 18.044 3.88586 17.882 3.7239C17.72 3.56194 17.5004 3.47095 17.2713 3.47095C17.0423 3.47095 16.8226 3.56194 16.6606 3.7239C16.4987 3.88586 16.4077 4.10553 16.4077 4.33458V6.06186H14.6804V4.33458C14.6804 4.10553 14.5894 3.88586 14.4274 3.7239C14.2655 3.56194 14.0458 3.47095 13.8168 3.47095C13.5877 3.47095 13.368 3.56194 13.2061 3.7239C13.0441 3.88586 12.9531 4.10553 12.9531 4.33458V9.5164C12.9531 9.74545 13.0441 9.96512 13.2061 10.1271C13.368 10.289 13.5877 10.38 13.8168 10.38Z" fill="#807166"/>
<path d="M22.2275 10.3784C22.8544 10.3777 23.4555 10.1283 23.8988 9.68501C24.3421 9.2417 24.5914 8.64065 24.5921 8.01372V5.8339C24.5981 5.51962 24.5414 5.20731 24.4253 4.91521C24.3092 4.62311 24.136 4.35709 23.9159 4.13271C23.6957 3.90833 23.4331 3.73009 23.1433 3.60842C22.8534 3.48674 22.5422 3.42407 22.2279 3.42407C21.9136 3.42407 21.6024 3.48674 21.3126 3.60842C21.0228 3.73009 20.7601 3.90833 20.54 4.13271C20.3198 4.35709 20.1466 4.62311 20.0305 4.91521C19.9144 5.20731 19.8577 5.51962 19.8637 5.8339V8.01372C19.8644 8.6405 20.1136 9.24142 20.5567 9.6847C20.9999 10.128 21.6007 10.3774 22.2275 10.3784ZM21.5918 5.8339C21.5887 5.74828 21.6028 5.66291 21.6334 5.58288C21.664 5.50285 21.7104 5.42981 21.7699 5.36813C21.8293 5.30644 21.9006 5.25737 21.9795 5.22386C22.0583 5.19035 22.1431 5.17308 22.2288 5.17308C22.3145 5.17308 22.3993 5.19035 22.4781 5.22386C22.5569 5.25737 22.6282 5.30644 22.6877 5.36813C22.7471 5.42981 22.7935 5.50285 22.8241 5.58288C22.8547 5.66291 22.8689 5.74828 22.8657 5.8339V8.01372C22.8689 8.09933 22.8547 8.1847 22.8241 8.26473C22.7935 8.34476 22.7471 8.4178 22.6877 8.47949C22.6282 8.54117 22.5569 8.59024 22.4781 8.62375C22.3993 8.65726 22.3145 8.67454 22.2288 8.67454C22.1431 8.67454 22.0583 8.65726 21.9795 8.62375C21.9006 8.59024 21.8293 8.54117 21.7699 8.47949C21.7104 8.4178 21.664 8.34476 21.6334 8.26473C21.6028 8.1847 21.5887 8.09933 21.5918 8.01372V5.8339Z" fill="#807166"/>
<path d="M26.7738 5.19651H27.6374V9.51469C27.6374 9.74374 27.7284 9.96341 27.8904 10.1254C28.0523 10.2873 28.272 10.3783 28.5011 10.3783C28.7301 10.3783 28.9498 10.2873 29.1117 10.1254C29.2737 9.96341 29.3647 9.74374 29.3647 9.51469V5.19651H30.2283C30.4574 5.19651 30.6771 5.10552 30.839 4.94356C31.001 4.78159 31.092 4.56193 31.092 4.33287C31.092 4.10382 31.001 3.88415 30.839 3.72219C30.6771 3.56023 30.4574 3.46924 30.2283 3.46924H26.7738C26.5447 3.46924 26.3251 3.56023 26.1631 3.72219C26.0011 3.88415 25.9102 4.10382 25.9102 4.33287C25.9102 4.56193 26.0011 4.78159 26.1631 4.94356C26.3251 5.10552 26.5447 5.19651 26.7738 5.19651Z" fill="#807166"/>
<path d="M33.68 10.38H36.271C36.5 10.38 36.7197 10.289 36.8816 10.1271C37.0436 9.96512 37.1346 9.74545 37.1346 9.5164C37.1346 9.28735 37.0436 9.06768 36.8816 8.90572C36.7197 8.74376 36.5 8.65277 36.271 8.65277H34.5437V7.78913H35.3918C35.6208 7.78913 35.8405 7.69814 36.0025 7.53618C36.1644 7.37421 36.2554 7.15454 36.2554 6.92549C36.2554 6.69644 36.1644 6.47677 36.0025 6.31481C35.8405 6.15285 35.6208 6.06186 35.3918 6.06186H34.5437V5.19822H36.271C36.5 5.19822 36.7197 5.10723 36.8816 4.94527C37.0436 4.7833 37.1346 4.56363 37.1346 4.33458C37.1346 4.10553 37.0436 3.88586 36.8816 3.7239C36.7197 3.56194 36.5 3.47095 36.271 3.47095H33.68C33.451 3.47095 33.2313 3.56194 33.0694 3.7239C32.9074 3.88586 32.8164 4.10553 32.8164 4.33458V9.5164C32.8164 9.74545 32.9074 9.96512 33.0694 10.1271C33.2313 10.289 33.451 10.38 33.68 10.38Z" fill="#807166"/>
<path d="M39.7269 10.38H43.1815C43.4105 10.38 43.6302 10.289 43.7921 10.1271C43.9541 9.96512 44.0451 9.74545 44.0451 9.5164C44.0451 9.28735 43.9541 9.06768 43.7921 8.90572C43.6302 8.74376 43.4105 8.65277 43.1815 8.65277H40.5906V4.33458C40.5906 4.10553 40.4996 3.88586 40.3376 3.7239C40.1756 3.56194 39.956 3.47095 39.7269 3.47095C39.4979 3.47095 39.2782 3.56194 39.1162 3.7239C38.9543 3.88586 38.8633 4.10553 38.8633 4.33458V9.5164C38.8633 9.74545 38.9543 9.96512 39.1162 10.1271C39.2782 10.289 39.4979 10.38 39.7269 10.38Z" fill="#807166"/>
<path d="M57 40.869C57 37.8661 55.062 35.4229 52.6818 35.4229C50.3016 35.4229 48.3636 37.8661 48.3636 40.869C48.3636 43.0004 49.565 48.7367 51.8614 49.8871V55.2805H46.6364V14.0772L51.8182 15.3727L51.8596 32.8363C51.8596 33.0653 51.9506 33.285 52.1126 33.447C52.2746 33.6089 52.4942 33.6999 52.7233 33.6999C52.9523 33.6999 53.172 33.6089 53.334 33.447C53.4959 33.285 53.5869 33.0653 53.5869 32.8363L53.5437 14.6999C53.5433 14.5076 53.4787 14.3209 53.3601 14.1694C53.2415 14.018 53.0757 13.9105 52.8891 13.8639L47.2098 12.4363C47.3974 12.0659 47.4967 11.6571 47.5 11.2419V2.60556C47.5186 1.93869 47.2722 1.29162 46.8148 0.806024C46.3574 0.320425 45.7262 0.0358646 45.0594 0.0146484H11.9398C11.2731 0.0358629 10.6419 0.320452 10.1846 0.806077C9.72734 1.2917 9.48115 1.93878 9.5 2.60556V11.2419C9.50185 11.6579 9.60061 12.0677 9.78845 12.4389L4.10832 13.8587C3.92156 13.9055 3.75579 14.0134 3.63734 14.1652C3.51889 14.3169 3.45455 14.5039 3.45455 14.6965V32.8328C3.45455 33.0619 3.54554 33.2816 3.7075 33.4435C3.86946 33.6055 4.08913 33.6965 4.31818 33.6965C4.54723 33.6965 4.7669 33.6055 4.92886 33.4435C5.09083 33.2816 5.18182 33.0619 5.18182 32.8328V15.3727L10.3636 14.0772V55.2805H5.225V49.8318C7.46441 48.583 8.63636 42.9469 8.63636 40.869C8.63636 37.8661 6.69836 35.4229 4.31818 35.4229C1.938 35.4229 0 37.8661 0 40.869C0 43.0004 1.20132 48.7367 3.49773 49.8871V55.2856H0.863636C0.634586 55.2856 0.414916 55.3766 0.252953 55.5386C0.09099 55.7006 0 55.9202 0 56.1493C0 56.3783 0.09099 56.598 0.252953 56.76C0.414916 56.9219 0.634586 57.0129 0.863636 57.0129H56.1364C56.3654 57.0129 56.5851 56.9219 56.747 56.76C56.909 56.598 57 56.3783 57 56.1493C57 55.9202 56.909 55.7006 56.747 55.5386C56.5851 55.3766 56.3654 55.2856 56.1364 55.2856H53.5886V49.8318C55.8263 48.583 57 42.9469 57 40.869ZM50.0909 40.869C50.0909 38.8532 51.2775 37.1502 52.6818 37.1502C54.0861 37.1502 55.2727 38.8532 55.2727 40.869C55.1776 43.1322 54.6036 45.3496 53.5886 47.3747V44.9229C53.5886 44.6938 53.4976 44.4742 53.3357 44.3122C53.1737 44.1502 52.9541 44.0592 52.725 44.0592C52.4959 44.0592 52.2763 44.1502 52.1143 44.3122C51.9524 44.4742 51.8614 44.6938 51.8614 44.9229V47.5345C50.7972 45.4664 50.1932 43.1925 50.0909 40.869ZM12.0909 13.8328H44.9091V55.2805H36.2727V44.0592H38.0423C38.2714 44.0592 38.491 43.9683 38.653 43.8063C38.815 43.6443 38.906 43.4247 38.906 43.1956C38.906 42.9666 38.815 42.7469 38.653 42.5849C38.491 42.423 38.2714 42.332 38.0423 42.332H19C18.771 42.332 18.5513 42.423 18.3893 42.5849C18.2274 42.7469 18.1364 42.9666 18.1364 43.1956C18.1364 43.4247 18.2274 43.6443 18.3893 43.8063C18.5513 43.9683 18.771 44.0592 19 44.0592H20.7273V55.2805H12.0909V13.8328ZM34.5455 55.2805H29.3636V44.0592H34.5455V55.2805ZM27.6364 55.2805H22.4545V44.0592H27.6364V55.2805ZM11.2273 2.60642C11.2118 2.39838 11.2773 2.19241 11.4101 2.0315C11.5428 1.87058 11.7326 1.76715 11.9398 1.74278H45.0576C45.2649 1.76715 45.4547 1.87055 45.5876 2.03144C45.7205 2.19233 45.7862 2.3983 45.771 2.60642V11.2428C45.7862 11.4509 45.7205 11.6569 45.5876 11.8178C45.4547 11.9787 45.2649 12.0821 45.0576 12.1064H11.9398C11.7326 12.0821 11.5428 11.9786 11.4101 11.8177C11.2773 11.6568 11.2118 11.4508 11.2273 11.2428V2.60642ZM1.72727 40.869C1.72727 38.8532 2.91391 37.1502 4.31818 37.1502C5.72245 37.1502 6.90909 38.8532 6.90909 40.869C6.81391 43.1322 6.23993 45.3496 5.225 47.3747V44.9229C5.225 44.6938 5.13401 44.4742 4.97205 44.3122C4.81008 44.1502 4.59041 44.0592 4.36136 44.0592C4.13231 44.0592 3.91264 44.1502 3.75068 44.3122C3.58872 44.4742 3.49773 44.6938 3.49773 44.9229V47.5345C2.43352 45.4664 1.82954 43.1925 1.72727 40.869Z" fill="#807166"/>
</g>
<defs>
<clipPath id="clip0_2632_1683">
<rect width="57" height="57" fill="white"/>
</clipPath>
</defs>
</svg>
