<svg width="69" height="69" viewBox="0 0 69 69" fill="none" xmlns="http://www.w3.org/2000/svg">
<path d="M62.8523 17.3554L38.25 2.28133C36.4044 1.13717 34.036 1.88404 33.0329 3.97358C32.0625 5.97633 32.7395 8.50251 34.542 9.60409L55.9919 22.7578C56.9699 23.355 57.5778 24.5237 57.5778 25.8082V32.2632C57.5778 32.7044 57.9355 33.0621 58.3767 33.0621C58.8179 33.0621 59.1756 32.7044 59.1756 32.2632V25.8082C59.1756 23.9708 58.2749 22.2793 56.8258 21.395L35.3765 8.24174C34.255 7.55619 33.8487 5.9541 34.4721 4.66776C35.0388 3.48694 36.3738 2.99828 37.4117 3.64165L62.0183 18.7186C62.9963 19.3161 63.6043 20.4851 63.6043 21.7692V65.6558H43.1786V54.1073H58.3766C58.8178 54.1073 59.1754 53.7497 59.1754 53.3084V39.4146C59.1754 38.9734 58.8178 38.6158 58.3766 38.6158C57.9353 38.6158 57.5777 38.9734 57.5777 39.4146V52.509H40.51C40.0688 52.509 39.7111 52.8667 39.7111 53.3079C39.7111 53.7491 40.0688 54.1068 40.51 54.1068H41.581V65.6558H40.367C39.9258 65.6558 39.5681 66.0135 39.5681 66.4547C39.5681 66.8959 39.9258 67.2536 40.367 67.2536H66.4172C66.8584 67.2536 67.2161 66.8959 67.2161 66.4547C67.2161 66.0135 66.8584 65.6558 66.4172 65.6558H65.202V21.7692C65.202 19.9321 64.3014 18.2408 62.8523 17.3554Z" fill="#807166"/>
<path d="M32.9112 28.4341C32.9112 27.0086 31.751 25.8486 30.3254 25.8486H9.72637C8.30082 25.8486 7.14062 27.0086 7.14062 28.4341V36.0942C7.14062 37.5197 8.30082 38.6797 9.72637 38.6797H30.3254C31.751 38.6797 32.9112 37.5197 32.9112 36.0942V28.4341ZM8.73841 36.0942V28.4341C8.73841 27.8895 9.18152 27.4464 9.72637 27.4464H19.2273V37.0819H9.72637C9.18152 37.0819 8.73841 36.6388 8.73841 36.0942ZM31.3134 36.0942C31.3134 36.6388 30.8703 37.0819 30.3254 37.0819H20.8251V27.4464H30.3254C30.8703 27.4464 31.3134 27.8895 31.3134 28.4341V36.0942Z" fill="#807166"/>
<path d="M7.14062 46.637C7.14062 48.4051 8.57857 49.8435 10.3467 49.8435C12.1148 49.8435 13.5528 48.4052 13.5528 46.637C13.5528 44.8691 12.1148 43.4309 10.3467 43.4309C8.57857 43.4309 7.14062 44.8691 7.14062 46.637ZM11.955 46.637C11.955 47.5239 11.2335 48.2457 10.3467 48.2457C9.45981 48.2457 8.73841 47.5239 8.73841 46.637C8.73841 45.7501 9.45994 45.0287 10.3467 45.0287C11.2336 45.0286 11.955 45.7501 11.955 46.637Z" fill="#807166"/>
<path d="M29.7067 43.4309C27.9386 43.4309 26.5 44.8691 26.5 46.637C26.5 48.4051 27.9386 49.8435 29.7067 49.8435C31.4749 49.8435 32.9128 48.4052 32.9128 46.637C32.9128 44.8693 31.4749 43.4309 29.7067 43.4309ZM29.7067 48.2457C28.8192 48.2457 28.0978 47.5239 28.0978 46.637C28.0978 45.7501 28.8193 45.0287 29.7067 45.0287C30.5936 45.0287 31.315 45.7502 31.315 46.637C31.315 47.5237 30.5936 48.2457 29.7067 48.2457Z" fill="#807166"/>
<path d="M5.25888 19.4958C3.34157 19.4958 1.78125 21.0576 1.78125 22.9777V52.5142C1.78125 54.4318 3.34157 55.9918 5.25888 55.9918H7.99233L6.75343 59.3531C6.75248 59.3554 6.75073 59.3572 6.74979 59.3595L5.09716 63.8466L4.23776 66.1783C4.08547 66.5921 4.29705 67.0515 4.71078 67.204C4.80189 67.2377 4.89555 67.2536 4.98732 67.2536C5.31251 67.2536 5.61762 67.0536 5.73689 66.7306L6.40371 64.9216H33.6518L34.3185 66.7306C34.4378 67.0536 34.7429 67.2536 35.0681 67.2536C35.1599 67.2536 35.2534 67.2377 35.3446 67.204C35.7584 67.0515 35.9699 66.5921 35.8177 66.1783L34.7438 63.2647L33.3062 59.3597C33.3051 59.3569 33.3031 59.3549 33.302 59.3522L32.0636 55.9917H34.7955C36.7128 55.9917 38.2731 54.4316 38.2731 52.514V38.392C38.2731 37.9507 37.9154 37.5931 37.4742 37.5931C37.033 37.5931 36.6753 37.9507 36.6753 38.392V52.5142C36.6753 53.5508 35.8321 54.394 34.7955 54.394H5.25888C4.22226 54.394 3.37903 53.5508 3.37903 52.5142V22.9777C3.37903 21.9388 4.22226 21.0936 5.25888 21.0936C8.30525 21.0971 29.9618 21.0948 34.7953 21.0936C35.8319 21.0936 36.6752 21.939 36.6752 22.9777V33.5413C36.6752 33.9826 37.0328 34.3402 37.4741 34.3402C37.9153 34.3402 38.273 33.9826 38.273 33.5413V22.9777C38.273 21.0576 36.7126 19.4958 34.7953 19.4958H23.8626V16.7163H28.3469C29.5365 16.7163 30.5038 15.7485 30.5038 14.5589V13.2045C30.5038 12.0152 29.5365 11.0476 28.3469 11.0476H11.7054C10.5158 11.0476 9.54847 12.0154 9.54847 13.2045V14.5589C9.54847 15.7485 10.5158 16.7163 11.7054 16.7163H16.1897V19.4958H5.25888ZM6.99277 63.324L7.03697 63.2042L8.05769 60.4346H31.9981L33.063 63.324H6.99277ZM31.4092 58.8368H8.64662L9.69523 55.9918H30.3607L31.4092 58.8368ZM11.1462 14.5589V13.2045C11.1462 12.8962 11.3972 12.6453 11.7055 12.6453H28.3471C28.6554 12.6453 28.9063 12.8962 28.9063 13.2045V14.5589C28.9063 14.8675 28.6554 15.1185 28.3471 15.1185C22.7284 15.1185 21.9875 15.1185 11.7055 15.1185C11.3972 15.1185 11.1462 14.8675 11.1462 14.5589ZM17.7875 16.7163H22.2649V19.4958H17.7875V16.7163Z" fill="#807166"/>
<path d="M16.8692 43.6096C16.428 43.6096 16.0703 43.9673 16.0703 44.4085C16.0703 44.8497 16.428 45.2074 16.8692 45.2074H23.1834C23.6246 45.2074 23.9823 44.8497 23.9823 44.4085C23.9823 43.9673 23.6246 43.6096 23.1834 43.6096H16.8692Z" fill="#807166"/>
</svg>
