<svg width="64" height="64" viewBox="0 0 64 64" fill="none" xmlns="http://www.w3.org/2000/svg">
<g clip-path="url(#clip0_2636_1714)">
<path d="M64 41.2903H57.8064V22.7097C58.945 22.7097 59.871 21.7837 59.871 20.6452V18.5806C59.871 17.4421 58.945 16.5161 57.8064 16.5161H57.7538C57.215 7.32077 49.5855 0 40.2581 0H23.7419C14.4145 0 6.78503 7.32077 6.24619 16.5161H6.19355C5.05497 16.5161 4.12903 17.4421 4.12903 18.5806V20.6452C4.12903 21.7837 5.05497 22.7097 6.19355 22.7097V43.4199C2.47535 45.8085 0 49.9716 0 54.7097V56.7742C0 59.6201 2.31535 61.9355 5.16129 61.9355H8.448C8.87535 63.1339 10.0108 64 11.3548 64H19.6129C20.9569 64 22.0924 63.1339 22.5197 61.9355H39.4168C39.8441 63.1339 40.9796 64 42.3236 64H50.5817C51.9257 64 53.0612 63.1339 53.4885 61.9355H64V41.2903ZM55.7419 41.2903H53.6774V22.7097H55.7419V41.2903ZM35.0968 41.2903H28.9032V35.0968H35.0968V41.2903ZM26.8387 33.0323V41.2903H24.7742V30.9677H39.2258V41.2903H37.1613V33.0323H26.8387ZM43.3548 30.9677V41.2903H41.2903V30.9677H43.3548ZM18.5806 28.9032V26.8387H45.4194L45.4204 28.9032H18.5806ZM22.7097 30.9677V41.2903H20.6452V30.9677H22.7097ZM45.4194 30.9677C46.5579 30.9677 47.4839 30.0418 47.4839 28.9032V26.8387C47.4839 25.7001 46.5579 24.7742 45.4194 24.7742H18.5806C17.4421 24.7742 16.5161 25.7001 16.5161 26.8387V28.9032C16.5161 30.0418 17.4421 30.9677 18.5806 30.9677V41.2903H13.4194C13.0705 41.2903 12.7288 41.3161 12.3871 41.343V22.7097H51.6129V41.2903H45.4194V30.9677ZM23.7419 2.06452H40.2581C48.447 2.06452 55.1546 8.45935 55.6893 16.5161H53.6248C53.0952 9.59897 47.3094 4.12903 40.2581 4.12903H23.7419C16.6906 4.12903 10.9048 9.59897 10.3752 16.5161H8.31071C8.84542 8.45935 15.553 2.06452 23.7419 2.06452ZM26.8387 11.3548C26.8387 8.5089 29.1541 6.19355 32 6.19355C34.8459 6.19355 37.1613 8.5089 37.1613 11.3548C37.1613 14.2008 34.8459 16.5161 32 16.5161C29.1541 16.5161 26.8387 14.2008 26.8387 11.3548ZM26.9523 16.5161H12.4387C12.9631 10.7375 17.8292 6.19355 23.7419 6.19355H26.9523C25.6103 7.50658 24.7742 9.33368 24.7742 11.3548C24.7742 13.376 25.6103 15.2031 26.9523 16.5161ZM39.2258 11.3548C39.2258 9.33368 38.3897 7.50658 37.0477 6.19355H40.2581C46.1708 6.19355 51.0369 10.7375 51.5603 16.5161H37.0477C38.3897 15.2031 39.2258 13.376 39.2258 11.3548ZM6.19355 18.5806H57.8064L57.8075 20.6452H6.19355V18.5806ZM8.25806 22.7097H10.3226V41.665C9.61239 41.8333 8.91974 42.048 8.25806 42.3257V22.7097ZM12.3871 43.4075V48.5161C12.3871 51.3621 10.0717 53.6774 7.22581 53.6774H2.11716C2.60955 48.2395 6.94916 43.8999 12.3871 43.4075ZM2.06452 56.7742V55.7419H7.22581C11.2103 55.7419 14.4516 52.5006 14.4516 48.5161V43.3548H41.2903V57.9964C40.416 58.3081 39.7275 58.9966 39.4157 59.871H22.5197C22.0924 58.6725 20.9569 57.8064 19.6129 57.8064H11.3548C10.0108 57.8064 8.87535 58.6725 8.448 59.871H5.16129C3.45394 59.871 2.06452 58.4815 2.06452 56.7742ZM19.6129 61.9355H11.3548C10.7861 61.9355 10.3226 61.472 10.3226 60.9032C10.3226 60.3344 10.7861 59.871 11.3548 59.871H19.6129C20.1817 59.871 20.6452 60.3344 20.6452 60.9032C20.6452 61.472 20.1817 61.9355 19.6129 61.9355ZM50.5806 61.9355H42.3226C41.7538 61.9355 41.2903 61.472 41.2903 60.9032C41.2903 60.3344 41.7538 59.871 42.3226 59.871H50.5806C51.1494 59.871 51.6129 60.3344 51.6129 60.9032C51.6129 61.472 51.1494 61.9355 50.5806 61.9355ZM61.9355 59.871H53.4875C53.0601 58.6725 51.9246 57.8064 50.5806 57.8064H43.3548V43.3548H61.9355V59.871Z" fill="#807166"/>
<path d="M19.6124 53.6774C21.3198 53.6774 22.7092 52.288 22.7092 50.5807C22.7092 48.8733 21.3198 47.4839 19.6124 47.4839C17.905 47.4839 16.5156 48.8733 16.5156 50.5807C16.5156 52.288 17.905 53.6774 19.6124 53.6774ZM19.6124 49.5484C20.1812 49.5484 20.6447 50.0119 20.6447 50.5807C20.6447 51.1494 20.1812 51.6129 19.6124 51.6129C19.0436 51.6129 18.5801 51.1494 18.5801 50.5807C18.5801 50.0119 19.0436 49.5484 19.6124 49.5484Z" fill="#807166"/>
<path d="M27.8702 53.6774C29.5776 53.6774 30.967 52.288 30.967 50.5807C30.967 48.8733 29.5776 47.4839 27.8702 47.4839C26.1629 47.4839 24.7734 48.8733 24.7734 50.5807C24.7734 52.288 26.1629 53.6774 27.8702 53.6774ZM27.8702 49.5484C28.439 49.5484 28.9025 50.0119 28.9025 50.5807C28.9025 51.1494 28.439 51.6129 27.8702 51.6129C27.3014 51.6129 26.838 51.1494 26.838 50.5807C26.838 50.0119 27.3014 49.5484 27.8702 49.5484Z" fill="#807166"/>
<path d="M36.128 53.6774C37.8354 53.6774 39.2248 52.288 39.2248 50.5807C39.2248 48.8733 37.8354 47.4839 36.128 47.4839C34.4207 47.4839 33.0312 48.8733 33.0312 50.5807C33.0312 52.288 34.4207 53.6774 36.128 53.6774ZM36.128 49.5484C36.6968 49.5484 37.1603 50.0119 37.1603 50.5807C37.1603 51.1494 36.6968 51.6129 36.128 51.6129C35.5592 51.6129 35.0958 51.1494 35.0958 50.5807C35.0958 50.0119 35.5592 49.5484 36.128 49.5484Z" fill="#807166"/>
<path d="M48.5147 53.6774C50.2221 53.6774 51.6115 52.288 51.6115 50.5807C51.6115 48.8733 50.2221 47.4839 48.5147 47.4839C46.8074 47.4839 45.418 48.8733 45.418 50.5807C45.418 52.288 46.8074 53.6774 48.5147 53.6774ZM48.5147 49.5484C49.0835 49.5484 49.547 50.0119 49.547 50.5807C49.547 51.1494 49.0835 51.6129 48.5147 51.6129C47.946 51.6129 47.4825 51.1494 47.4825 50.5807C47.4825 50.0119 47.946 49.5484 48.5147 49.5484Z" fill="#807166"/>
<path d="M56.7726 53.6774C58.4799 53.6774 59.8693 52.288 59.8693 50.5807C59.8693 48.8733 58.4799 47.4839 56.7726 47.4839C55.0652 47.4839 53.6758 48.8733 53.6758 50.5807C53.6758 52.288 55.0652 53.6774 56.7726 53.6774ZM56.7726 49.5484C57.3413 49.5484 57.8048 50.0119 57.8048 50.5807C57.8048 51.1494 57.3413 51.6129 56.7726 51.6129C56.2038 51.6129 55.7403 51.1494 55.7403 50.5807C55.7403 50.0119 56.2038 49.5484 56.7726 49.5484Z" fill="#807166"/>
<path d="M30.9681 10.9275L30.2383 11.6573L31.6979 13.1169L33.0326 11.7822V8.25806H30.9681V10.9275Z" fill="#807166"/>
</g>
<defs>
<clipPath id="clip0_2636_1714">
<rect width="64" height="64" fill="white"/>
</clipPath>
</defs>
</svg>
